<svg xmlns="http://www.w3.org/2000/svg" xmlns:xlink="http://www.w3.org/1999/xlink" fill="none" version="1.1" width="16" height="16" viewBox="0 0 16 16"><defs><clipPath id="master_svg0_2226_106349/2195_131084"><rect x="16" y="0" width="16" height="16" rx="0"/></clipPath></defs><g transform="matrix(-1,0,0,1,32,0)" clip-path="url(#master_svg0_2226_106349/2195_131084)"><g><path d="M30.055715624999998,9.748448046875L25.753715624999998,14.050448046875C25.528645625,14.275748046875,25.223215625,14.402348046875,24.904715625,14.402348046875C24.586215625,14.402348046875,24.280815625,14.275748046875,24.055715625,14.050448046875L18.666015625,8.666748046875L18.666015625,2.666748046875L24.666015625,2.666748046875L30.055715624999998,8.056448046875001C30.521015625,8.524478046875,30.521015625,9.280418046874999,30.055715624999998,9.748448046875Z" fill="#0068FF" fill-opacity="1"/><path d="M30.904715625,8.902448046875Q30.904715625,8.201238046875,30.410315625000003,7.703948046875L30.409315624999998,7.702898046875L25.019565625,2.313195046875Q24.949245625,2.242868046875,24.857355625,2.2048080468749998Q24.765475625,2.166748046875,24.666015625,2.166748046875L18.666015625,2.166748046875Q18.616769925,2.166748046875,18.568470525,2.176355046875Q18.520170625,2.185963046875,18.474673625,2.2048080468749998Q18.429176625,2.223654046875,18.388230625,2.251013046875Q18.347284625,2.278373046875,18.312462625,2.313195046875Q18.277640625,2.348017046875,18.250280625,2.388963046875Q18.222921625,2.429909046875,18.204075625,2.475406046875Q18.185230625,2.520903046875,18.175622625,2.569202946875Q18.166015625,2.617502346875,18.166015625,2.666748046875L18.166015625,8.666748046875Q18.166015625,8.766278046875,18.204129625,8.858218046874999Q18.242242625,8.950158046875,18.312659625,9.020498046875L23.701975625,14.403848046875Q24.200025625000002,14.902348046875,24.904715625,14.902348046875Q25.609475625,14.902348046875,26.107265625,14.404048046875L30.410315625000003,10.100948046875Q30.904715625,9.603658046875001,30.904715625,8.902448046875ZM29.701115625,8.408958046875L29.702115624999998,8.409998046875Q30.191215624999998,8.902978046874999,29.701115625,9.395948046874999L25.400165625,13.696848046875Q25.194915625,13.902348046875,24.904715625,13.902348046875Q24.614545624999998,13.902348046875,24.409455625,13.697048046875L19.166015625,8.459478046874999L19.166015625,3.166748046875L24.458905625,3.166748046875L29.701115625,8.408958046875Z" fill-rule="evenodd" fill="#0068FF" fill-opacity="1"/></g><g><path d="M23.000654375,6.166584953125Q23.000654375,6.248661953125,22.984634375,6.329160953125Q22.968624375,6.409661953125,22.937214375,6.485491953125Q22.905804375,6.561311953125,22.860204375,6.629561953125Q22.814614375,6.6978019531249995,22.756574375,6.755841953125Q22.698534375,6.813881953125,22.630294375,6.859471953125Q22.562044375,6.905071953125,22.486224375,6.936481953125Q22.410394375,6.967891953125,22.329893375,6.983901953125Q22.249394375,6.999921953125,22.167317375,6.999921953125Q22.085241375,6.999921953125,22.004742375,6.983901953125Q21.924243375,6.967891953125,21.848414375,6.936481953125Q21.772586375,6.905071953125,21.704342375,6.859471953125Q21.636098375,6.813881953125,21.578062375,6.755841953125Q21.520025375,6.6978019531249995,21.474426375,6.629561953125Q21.428827275,6.561311953125,21.397418075,6.485491953125Q21.366008875,6.409661953125,21.349996675,6.329160953125Q21.333984375,6.248661953125,21.333984375,6.166584953125Q21.333984375,6.084508953125,21.349996675,6.004009953125Q21.366008875,5.923510953125,21.397418075,5.847681953125Q21.428827275,5.771853953125,21.474426375,5.703609953125Q21.520025375,5.6353659531249995,21.578062375,5.577329953125Q21.636098375,5.519292953125,21.704342375,5.473693953125Q21.772586375,5.428094853125,21.848414375,5.396685653125Q21.924243375,5.365276453125,22.004742375,5.349264253125Q22.085241375,5.333251953125,22.167317375,5.333251953125Q22.249394375,5.333251953125,22.329893375,5.349264253125Q22.410394375,5.365276453125,22.486224375,5.396685653125Q22.562044375,5.428094853125,22.630294375,5.473693953125Q22.698534375,5.519292953125,22.756574375,5.577329953125Q22.814614375,5.6353659531249995,22.860204375,5.703609953125Q22.905804375,5.771853953125,22.937214375,5.847681953125Q22.968624375,5.923510953125,22.984634375,6.004009953125Q23.000654375,6.084508953125,23.000654375,6.166584953125Z" fill="#FFFFFF" fill-opacity="1"/></g></g></svg>