<svg xmlns="http://www.w3.org/2000/svg" xmlns:xlink="http://www.w3.org/1999/xlink" fill="none" version="1.1" width="16" height="16" viewBox="0 0 16 16"><g><g></g><g><path d="M14.5,8Q14.5,8.15957,14.4922,8.31894Q14.4843,8.47831,14.4687,8.63711Q14.4531,8.79591,14.4296,8.95375Q14.4062,9.11159,14.3751,9.26809Q14.344,9.42459,14.3052,9.57937Q14.2664,9.73415,14.2201,9.88685Q14.1738,10.03954,14.12,10.18978Q14.0663,10.34002,14.0052,10.48744Q13.9442,10.63486,13.8759,10.77911Q13.8077,10.92335,13.7325,11.06408Q13.6573,11.2048,13.5752,11.34167Q13.4932,11.47853,13.4045,11.6112Q13.3159,11.7439,13.2208,11.872Q13.1258,12.0002,13.0246,12.1236Q12.9233,12.2469,12.8162,12.3651Q12.709,12.4834,12.5962,12.5962Q12.4834,12.709,12.3651,12.8162Q12.2469,12.9233,12.1236,13.0246Q12.0002,13.1258,11.872,13.2208Q11.7439,13.3159,11.6112,13.4046Q11.47853,13.4932,11.34167,13.5752Q11.2048,13.6573,11.06408,13.7325Q10.92335,13.8077,10.77911,13.8759Q10.63486,13.9442,10.48744,14.0052Q10.34002,14.0663,10.18978,14.12Q10.03954,14.1738,9.88685,14.2201Q9.73415,14.2664,9.57937,14.3052Q9.42459,14.344,9.26809,14.3751Q9.11159,14.4062,8.95375,14.4296Q8.79591,14.4531,8.63711,14.4687Q8.47831,14.4843,8.31894,14.4922Q8.15957,14.5,8,14.5Q7.84043,14.5,7.68106,14.4922Q7.52169,14.4843,7.36289,14.4687Q7.20409,14.4531,7.04625,14.4296Q6.88841,14.4062,6.73191,14.3751Q6.57541,14.344,6.42063,14.3052Q6.26584,14.2664,6.11315,14.2201Q5.96045,14.1738,5.81021,14.12Q5.65998,14.0663,5.51256,14.0052Q5.36514,13.9442,5.22089,13.8759Q5.07665,13.8077,4.935919999999999,13.7325Q4.7951999999999995,13.6573,4.658329999999999,13.5752Q4.52147,13.4932,4.38879,13.4045Q4.25612,13.3159,4.12795,13.2208Q3.99979,13.1258,3.87644,13.0246Q3.7531,12.9233,3.63487,12.8162Q3.51664,12.709,3.40381,12.5962Q3.2909800000000002,12.4834,3.18382,12.3651Q3.07666,12.2469,2.9754300000000002,12.1236Q2.8742,12.0002,2.77915,11.872Q2.6841,11.7439,2.59545,11.6112Q2.5068,11.47853,2.424764,11.34167Q2.342731,11.2048,2.267512,11.06408Q2.1922930000000003,10.92335,2.12407,10.77911Q2.055846,10.63486,1.994783,10.48744Q1.93372,10.34002,1.879964,10.18978Q1.8262070000000001,10.03954,1.7798880000000001,9.88685Q1.733568,9.73415,1.6947969999999999,9.57937Q1.656025,9.42459,1.624896,9.26809Q1.5937659,9.11159,1.5703527,8.95375Q1.5469395,8.79591,1.5312993,8.63711Q1.5156591,8.47831,1.50782953,8.31894Q1.5,8.15957,1.5,8Q1.5,7.84043,1.50782953,7.68106Q1.5156591,7.52169,1.5312993,7.36289Q1.5469395,7.20409,1.5703527,7.04625Q1.5937659,6.88841,1.624896,6.73191Q1.656025,6.57541,1.6947969999999999,6.42063Q1.733568,6.26584,1.7798880000000001,6.11315Q1.8262070000000001,5.96045,1.879964,5.81021Q1.93372,5.65998,1.994783,5.51256Q2.055846,5.36514,2.12407,5.22089Q2.1922930000000003,5.07665,2.267512,4.935919999999999Q2.342731,4.7951999999999995,2.424764,4.658329999999999Q2.5068,4.52147,2.59545,4.38879Q2.6841,4.25612,2.77915,4.12795Q2.8742,3.99979,2.9754300000000002,3.87644Q3.07666,3.7531,3.18382,3.63487Q3.2909800000000002,3.51664,3.40381,3.40381Q3.51664,3.2909800000000002,3.63487,3.18382Q3.7531,3.07666,3.87644,2.9754300000000002Q3.99979,2.8742,4.12795,2.77915Q4.25612,2.6841,4.38879,2.59545Q4.52147,2.5068,4.658329999999999,2.424764Q4.7951999999999995,2.342731,4.935919999999999,2.267512Q5.07665,2.1922930000000003,5.22089,2.12407Q5.36514,2.055846,5.51256,1.994783Q5.65998,1.93372,5.81022,1.879964Q5.96045,1.8262070000000001,6.11315,1.7798880000000001Q6.26584,1.733568,6.42063,1.6947969999999999Q6.57541,1.656025,6.73191,1.624896Q6.88841,1.5937659,7.04625,1.5703527Q7.20409,1.5469395,7.36289,1.5312993Q7.52169,1.5156591,7.68106,1.50782953Q7.84043,1.5,8,1.5Q8.15957,1.5,8.31894,1.50782953Q8.47831,1.5156591,8.63711,1.5312993Q8.79591,1.5469395,8.95375,1.5703527Q9.11159,1.5937659,9.26809,1.624896Q9.42459,1.656025,9.57937,1.6947969999999999Q9.73415,1.733568,9.88685,1.7798880000000001Q10.03954,1.8262070000000001,10.18978,1.879964Q10.34002,1.93372,10.48744,1.994783Q10.63486,2.055846,10.77911,2.12407Q10.92335,2.1922930000000003,11.06408,2.267512Q11.2048,2.342731,11.34167,2.424764Q11.47853,2.5068,11.6112,2.59545Q11.7439,2.6841,11.872,2.77915Q12.0002,2.8742,12.1236,2.9754300000000002Q12.2469,3.07666,12.3651,3.18382Q12.4834,3.2909800000000002,12.5962,3.40381Q12.709,3.51664,12.8162,3.63487Q12.9233,3.7531,13.0246,3.87644Q13.1258,3.99979,13.2208,4.12795Q13.3159,4.25612,13.4046,4.38879Q13.4932,4.52147,13.5752,4.658329999999999Q13.6573,4.7951999999999995,13.7325,4.935919999999999Q13.8077,5.07665,13.8759,5.22089Q13.9442,5.36514,14.0052,5.51256Q14.0663,5.65998,14.12,5.81022Q14.1738,5.96045,14.2201,6.11315Q14.2664,6.26584,14.3052,6.42063Q14.344,6.57541,14.3751,6.73191Q14.4062,6.88841,14.4296,7.04625Q14.4531,7.20409,14.4687,7.36289Q14.4843,7.52169,14.4922,7.68106Q14.5,7.84043,14.5,8ZM8.5,4.5L8.5,5.5L7.5,5.5L7.5,4.5L8.5,4.5ZM8.5,11.5L8.5,6.5L7.5,6.5L7.5,11.5L8.5,11.5Z" fill-rule="evenodd" fill="#979A9D" fill-opacity="1"/></g></g></svg>