<svg xmlns="http://www.w3.org/2000/svg" xmlns:xlink="http://www.w3.org/1999/xlink" fill="none" version="1.1" width="16" height="16" viewBox="0 0 16 16"><g><g><path d="M7.999999913787842,1.8823518753051758C8.211699913787843,1.8823518753051758,8.403349913787842,1.9928278753051758,8.488399913787841,2.1638808753051757C8.488399913787841,2.1638808753051757,10.265419913787841,5.737871875305176,10.265419913787841,5.737871875305176C10.265419913787841,5.737871875305176,14.466049913787842,6.200081875305176,14.466049913787842,6.200081875305176C14.669549913787842,6.222481875305176,14.840449913787841,6.345841875305176,14.905649913787842,6.5174018753051755C14.970849913787841,6.688951875305176,14.918849913787842,6.878311875305176,14.771749913787842,7.004451875305175C14.771749913787842,7.004451875305175,11.649149913787841,9.683431875305175,11.649149913787841,9.683431875305175C11.649149913787841,9.683431875305175,12.479149913787841,13.559651875305176,12.479149913787841,13.559651875305176C12.517949913787842,13.741151875305176,12.432949913787843,13.925851875305176,12.261849913787842,14.032051875305175C12.090649913787841,14.138251875305176,11.864849913787841,14.146251875305175,11.684549913787842,14.052651875305175C11.684549913787842,14.052651875305175,7.999999913787842,12.139051875305176,7.999999913787842,12.139051875305176C7.999999913787842,12.139051875305176,4.315459913787842,14.052651875305175,4.315459913787842,14.052651875305175C4.135129913787842,14.146251875305175,3.9093799137878418,14.138251875305176,3.7381899137878416,14.032051875305175C3.567009913787842,13.925851875305176,3.4820199137878416,13.741151875305176,3.5208699137878416,13.559651875305176C3.5208699137878416,13.559651875305176,4.350869913787841,9.683431875305175,4.350869913787841,9.683431875305175C4.350869913787841,9.683431875305175,1.2282079137878419,7.004451875305175,1.2282079137878419,7.004451875305175C1.0811747137878418,6.878311875305176,1.0291358137878417,6.688951875305176,1.094355313787842,6.5174018753051755C1.1595747137878418,6.345841875305176,1.3304989137878418,6.222481875305176,1.5339999137878417,6.200081875305176C1.5339999137878417,6.200081875305176,5.734579913787842,5.737871875305176,5.734579913787842,5.737871875305176C5.734579913787842,5.737871875305176,7.511599913787842,2.1638808753051757,7.511599913787842,2.1638808753051757C7.596649913787842,1.9928278753051758,7.788299913787842,1.8823518753051758,7.999999913787842,1.8823518753051758Z" fill-rule="evenodd" fill="#FFAA2A" fill-opacity="1"/></g></g></svg>