<svg xmlns="http://www.w3.org/2000/svg" xmlns:xlink="http://www.w3.org/1999/xlink" fill="none" version="1.1" width="123" height="99" viewBox="0 0 123 99"><defs><mask id="master_svg0_147_02299"><g><g><path d="M71.386,68.010765625C71.386,68.010765625,71.386,69.19276562499999,71.386,69.19276562499999C71.387,71.401765625,69.59700000000001,73.19276562499999,67.38900000000001,73.19276562499999C67.38900000000001,73.19276562499999,45.5,73.19276562499999,45.5,73.19276562499999C45.5,73.19276562499999,45.3,73.187765625,45.3,73.187765625C43.184,73.084765625,41.5,71.335765625,41.5,69.19276562499999C41.5,69.19276562499999,41.5,68.009765625,41.5,68.009765625C41.5,66.905765625,40.605000000000004,66.009765625,39.5,66.009765625C39.5,66.009765625,20.5,66.010765675,20.5,66.010765675C20.5,66.010765675,20.5,88.010765625,20.5,88.010765625C20.5,90.21976562500001,22.291,92.010765625,24.5,92.010765625C24.5,92.010765625,88.6,92.010765625,88.6,92.010765625C90.809,92.010765625,92.6,90.21976562500001,92.6,88.010765625C92.6,88.010765625,92.6,66.010765675,92.6,66.010765675C92.6,66.010765675,73.387,66.009765625,73.387,66.009765625C72.282,66.009765625,71.386,66.906765625,71.386,68.010765625Z" fill="#FFFFFF" fill-opacity="1"/></g></g></mask><mask id="master_svg1_147_02290"><g><g><path d="M88,12C88,14.351,88.846,16.544,90.305,18.395C90.517,18.663,90.59,19.014,90.482,19.338C90.482,19.338,89.143,23.326,89.143,23.326C89.143,23.326,93.489,21.717,93.489,21.717C93.765,21.615,94.069,21.645,94.326,21.791C96.775,23.182,99.768,24,103,24C111.28399999999999,24,118,18.628,118,12C118,5.372,111.28399999999999,0,103,0C94.716,0,88,5.372,88,12Z" fill="#FFFFFF" fill-opacity="1"/></g></g></mask></defs><g><g><path d="" fill="#FFFFFF" fill-opacity="0"/></g><g><path d="M101,89.693359375Q101,89.914299375,100.9464,90.134969375Q100.8928,90.355639375,100.7857,90.575509375Q100.6786,90.795359375,100.5183,91.013959375Q100.3581,91.232459375,100.1449,91.449159375Q99.9318,91.665859375,99.6664,91.880159375Q99.4009,92.094459375,99.0838,92.305959375Q98.7667,92.517359375,98.3987,92.725359375Q98.0307,92.933359375,97.6126,93.137459375Q97.1946,93.341659375,96.7275,93.541359375Q96.2604,93.741059375,95.7455,93.935959375Q95.2305,94.130759375,94.6689,94.320259375Q94.1073,94.509759375,93.5004,94.693459375Q92.8935,94.877159375,92.2427,95.054659375Q91.592,95.232159375,90.899,95.402859375Q90.2059,95.573659375,89.4723,95.737359375Q88.7387,95.901059375,87.9662,96.057359375Q87.1938,96.213559375,86.3844,96.361959375Q85.5749,96.510259375,84.7305,96.650459375Q83.886,96.790659375,83.0086,96.922259375Q82.1312,97.053859375,81.2229,97.176559375Q80.3146,97.299359375,79.3776,97.412959375Q78.4406,97.526459375,77.4771,97.630659375Q76.5137,97.734759375,75.5262,97.82925937499999Q74.5387,97.923759375,73.52940000000001,98.008259375Q72.5201,98.092859375,71.4916,98.167259375Q70.463,98.241659375,69.4177,98.305859375Q68.3723,98.36995937500001,67.3126,98.423659375Q66.2529,98.47735937499999,65.1815,98.520459375Q64.1101,98.563559375,63.0295,98.595959375Q61.9489,98.628359375,60.8618,98.650059375Q59.7746,98.671659375,58.6835,98.682559375Q57.5924,98.693359375,56.5,98.693359375Q55.4076,98.693359375,54.3165,98.682559375Q53.2254,98.671659375,52.1382,98.650059375Q51.0511,98.628359375,49.9705,98.595959375Q48.8899,98.563559375,47.8185,98.520459375Q46.7471,98.47735937499999,45.6874,98.423659375Q44.6277,98.36995937500001,43.582300000000004,98.305859375Q42.537,98.241659375,41.5084,98.167259375Q40.4798,98.092859375,39.470600000000005,98.008259375Q38.4613,97.923759375,37.4738,97.82925937499999Q36.4863,97.734759375,35.522800000000004,97.630659375Q34.5594,97.526459375,33.6224,97.412959375Q32.6854,97.299359375,31.7771,97.176559375Q30.8688,97.053859375,29.9914,96.922259375Q29.1139,96.790659375,28.2695,96.650459375Q27.425,96.510259375,26.6156,96.361959375Q25.8062,96.213559375,25.0337,96.057359375Q24.2613,95.901059375,23.5277,95.737359375Q22.7941,95.573659375,22.101,95.402859375Q21.40801,95.232159375,20.757260000000002,95.054659375Q20.10651,94.877159375,19.4996,94.693459375Q18.89269,94.509759375,18.33108,94.320259375Q17.76946,94.130759375,17.2545,93.935959375Q16.739539999999998,93.741059375,16.27248,93.541359375Q15.80541,93.341659375,15.387360000000001,93.137459375Q14.96931,92.933359375,14.60129,92.725359375Q14.233270000000001,92.517359375,13.91615,92.305959375Q13.59904,92.094459375,13.33361,91.880159375Q13.06817,91.665859375,12.855055,91.449159375Q12.641936,91.232459375,12.481645,91.013959375Q12.321355,90.795359375,12.21428,90.575509375Q12.107204,90.355639375,12.0536022,90.134969375Q12,89.914299375,12,89.693359375Q12,89.472419375,12.0536022,89.251749375Q12.107204,89.031079375,12.21428,88.811209375Q12.321355,88.591329375,12.481645,88.372789375Q12.641936,88.154239375,12.855055,87.937549375Q13.06817,87.720849375,13.33361,87.506539375Q13.59904,87.292219375,13.91615,87.080799375Q14.233270000000001,86.869369375,14.60129,86.661349375Q14.96931,86.453329375,15.387360000000001,86.249209375Q15.80541,86.045089375,16.27248,85.845359375Q16.739539999999998,85.645639375,17.2545,85.450789375Q17.76946,85.255939375,18.33108,85.066439375Q18.89269,84.876929375,19.4996,84.693229375Q20.10651,84.509519375,20.757260000000002,84.332069375Q21.40801,84.154609375,22.101,83.983819375Q22.7941,83.813029375,23.5277,83.649329375Q24.2613,83.485629375,25.0337,83.329399375Q25.8062,83.173169375,26.6156,83.024799375Q27.4251,82.876429375,28.2695,82.736269375Q29.1139,82.596099375,29.9914,82.464489375Q30.8688,82.332879375,31.7771,82.210129375Q32.6854,82.087389375,33.6224,81.973799375Q34.5594,81.860219375,35.522800000000004,81.756069375Q36.4863,81.651918375,37.4738,81.557455375Q38.4613,81.462992375,39.470600000000005,81.378443375Q40.4798,81.293894375,41.5084,81.219462375Q42.537,81.145031375,43.582300000000004,81.080896375Q44.6277,81.016761375,45.6874,80.963078375Q46.7471,80.909394375,47.8185,80.866291375Q48.8899,80.823189375,49.9705,80.790770775Q51.0511,80.758352475,52.1382,80.736696875Q53.2254,80.715041175,54.3165,80.704200275Q55.4076,80.693359375,56.5,80.693359375Q57.5924,80.693359375,58.6835,80.704200275Q59.7746,80.715041175,60.8618,80.736696875Q61.9489,80.758352475,63.0295,80.790770775Q64.1101,80.823189375,65.1815,80.866291375Q66.2529,80.909394375,67.3126,80.963078375Q68.3723,81.016761375,69.4177,81.080896375Q70.463,81.145031375,71.4916,81.219462375Q72.5201,81.293894375,73.52940000000001,81.378443375Q74.5387,81.462992375,75.5262,81.557455375Q76.5137,81.651918375,77.4771,81.756069375Q78.4406,81.860219375,79.3776,81.973799375Q80.3146,82.087389375,81.2229,82.210129375Q82.1312,82.332879375,83.0086,82.464489375Q83.886,82.596099375,84.7305,82.736269375Q85.5749,82.876429375,86.3844,83.024799375Q87.1938,83.173169375,87.9662,83.329399375Q88.7387,83.485629375,89.4723,83.649329375Q90.2059,83.813029375,90.8989,83.983819375Q91.592,84.154609375,92.2427,84.332069375Q92.8935,84.509519375,93.5004,84.693229375Q94.1073,84.876929375,94.6689,85.066439375Q95.2305,85.255939375,95.7455,85.450789375Q96.2604,85.645639375,96.7275,85.845359375Q97.1946,86.045089375,97.6126,86.249209375Q98.0307,86.453329375,98.3987,86.661349375Q98.7667,86.869369375,99.0838,87.080799375Q99.4009,87.292219375,99.6664,87.506539375Q99.9318,87.720849375,100.1449,87.937549375Q100.3581,88.154239375,100.5183,88.372789375Q100.6786,88.591329375,100.7857,88.811209375Q100.8928,89.031079375,100.9464,89.251749375Q101,89.472419375,101,89.693359375Z" fill="#F6F6F8" fill-opacity="1"/></g><g><path d="M34.7169,48.892578125C34.7169,48.892578125,78.3831,48.892578125,78.3831,48.892578125C78.3831,48.892578125,92.6,65.992578125,92.6,65.992578125C92.6,65.992578125,20.5,65.992578125,20.5,65.992578125C20.5,65.992578125,34.7169,48.892578125,34.7169,48.892578125Z" fill-rule="evenodd" fill="#AEB8C3" fill-opacity="1"/></g><g><path d="M33.5498046875,20.193359375C33.5498046875,20.193359375,79.5498046875,20.193359375,79.5498046875,20.193359375C80.6544046875,20.193359375,81.5498046875,21.088789375,81.5498046875,22.193359375C81.5498046875,22.193359375,81.5498046875,72.193359375,81.5498046875,72.193359375C81.5498046875,73.297959375,80.6544046875,74.193359375,79.5498046875,74.193359375C79.5498046875,74.193359375,33.5498046875,74.193359375,33.5498046875,74.193359375C32.4452346875,74.193359375,31.5498046875,73.297959375,31.5498046875,72.193359375C31.5498046875,72.193359375,31.5498046875,22.193359375,31.5498046875,22.193359375C31.5498046875,21.088789375,32.4452346875,20.193359375,33.5498046875,20.193359375Z" fill="#F5F5F7" fill-opacity="1"/></g><g><path d="M40.5,26.193359375C40.5,26.193359375,72.5,26.193359375,72.5,26.193359375C73.6046,26.193359375,74.5,27.088789375,74.5,28.193359375C74.5,28.193359375,74.5,44.193359375,74.5,44.193359375C74.5,45.297959375000005,73.6046,46.193359375,72.5,46.193359375C72.5,46.193359375,40.5,46.193359375,40.5,46.193359375C39.39543,46.193359375,38.5,45.297959375000005,38.5,44.193359375C38.5,44.193359375,38.5,28.193359375,38.5,28.193359375C38.5,27.088789375,39.39543,26.193359375,40.5,26.193359375Z" fill="#DEDEE7" fill-opacity="1"/></g><g><path d="M40,52.130859375C40,52.130859375,73,52.130859375,73,52.130859375C73.8284,52.130859375,74.5,52.802432375,74.5,53.630859375C74.5,54.459289375,73.8284,55.130859375,73,55.130859375C73,55.130859375,40,55.130859375,40,55.130859375C39.171573,55.130859375,38.5,54.459289375,38.5,53.630859375C38.5,52.802432375,39.171573,52.130859375,40,52.130859375Z" fill="#DEDEE7" fill-opacity="1"/></g><g><path d="M40,60.4072265625C40,60.4072265625,73,60.4072265625,73,60.4072265625C73.8284,60.4072265625,74.5,61.0787995625,74.5,61.9072265625C74.5,62.7356565625,73.8284,63.4072265625,73,63.4072265625C73,63.4072265625,40,63.4072265625,40,63.4072265625C39.171573,63.4072265625,38.5,62.7356565625,38.5,61.9072265625C38.5,61.0787995625,39.171573,60.4072265625,40,60.4072265625Z" fill="#DEDEE7" fill-opacity="1"/></g><g mask="url(#master_svg0_147_02299)"><g><path d="M15.5,97.01076555252075C15.5,97.01076555252075,97.6,97.01076555252075,97.6,97.01076555252075C97.6,97.01076555252075,97.6,61.01076555252075,97.6,61.01076555252075C97.6,61.01076555252075,15.5,61.01076555252075,15.5,61.01076555252075C15.5,61.01076555252075,15.5,97.01076555252075,15.5,97.01076555252075Z" fill-rule="evenodd" fill="#DCE0E8" fill-opacity="1"/></g></g><g mask="url(#master_svg1_147_02290)"><g><path d="M83,29C83,29,123,29,123,29C123,29,123,-5,123,-5C123,-5,83,-5,83,-5C83,-5,83,29,83,29Z" fill-rule="evenodd" fill="#DCE0E8" fill-opacity="1"/></g><g><path d="M67,8C67,8,71,8,71,8C71,8,71,12,71,12C71,12,67,12,67,12C67,12,67,8,67,8Z" fill="#FFFFFF" fill-opacity="1"/></g></g><g><path d="M101.197265625,9.1396484375C101.197265625,9.1396484375,105.197265625,9.1396484375,105.197265625,9.1396484375C105.197265625,9.1396484375,105.197265625,13.1396484375,105.197265625,13.1396484375C105.197265625,13.1396484375,101.197265625,13.1396484375,101.197265625,13.1396484375C101.197265625,13.1396484375,101.197265625,9.1396484375,101.197265625,9.1396484375Z" fill="#FFFFFF" fill-opacity="1"/></g><g><path d="M110.8203125,11.1396484375Q110.8203125,11.2378984375,110.8106825,11.3356784375Q110.8010525,11.4334584375,110.7818825,11.5298284375Q110.7627125,11.6261984375,110.7341925,11.7202184375Q110.7056725,11.8142384375,110.6680725,11.9050184375Q110.6304725,11.9957884375,110.5841525,12.0824384375Q110.5378425,12.1690984375,110.4832525,12.250788437499999Q110.4286625,12.3324884375,110.3663325,12.4084384375Q110.3040025,12.4843884375,110.2345225,12.5538584375Q110.1650525,12.6233384375,110.0891025,12.6856684375Q110.0131525,12.7479984375,109.9314525,12.802588437499999Q109.8497625,12.8571784375,109.7631025,12.9034884375Q109.6764525,12.9498084375,109.5856825,12.987408437500001Q109.4949025,13.0250084375,109.4008825,13.053528437499999Q109.3068625,13.0820484375,109.2104925,13.1012184375Q109.1141225,13.1203884375,109.0163425,13.1300184375Q108.91856250000001,13.1396484375,108.8203125,13.1396484375Q108.7220625,13.1396484375,108.6242825,13.1300184375Q108.5265025,13.1203884375,108.4301325,13.1012184375Q108.3337625,13.0820484375,108.2397425,13.053528437499999Q108.1457225,13.0250084375,108.0549425,12.987408437500001Q107.9641725,12.9498084375,107.8775225,12.9034884375Q107.7908665,12.8571784375,107.7091715,12.802588437499999Q107.6274765,12.7479984375,107.5515255,12.6856684375Q107.4755745,12.6233384375,107.4060985,12.5538584375Q107.3366235,12.4843884375,107.2742915,12.4084384375Q107.2119605,12.3324884375,107.1573735,12.250788437499999Q107.1027865,12.1690984375,107.0564695,12.0824384375Q107.0101535,11.9957884375,106.9725535,11.9050184375Q106.9349535,11.8142384375,106.9064318,11.7202184375Q106.8779103,11.6261984375,106.8587419,11.5298284375Q106.8395736,11.4334584375,106.82994305,11.3356784375Q106.8203125,11.2378984375,106.8203125,11.1396484375Q106.8203125,11.0413984375,106.82994305,10.9436184375Q106.8395736,10.8458384375,106.8587419,10.7494684375Q106.8779103,10.6530984375,106.9064318,10.5590784375Q106.9349535,10.4650584375,106.9725535,10.3742784375Q107.0101535,10.2835084375,107.0564695,10.1968584375Q107.1027865,10.1102024375,107.1573735,10.0285074375Q107.2119605,9.9468124375,107.2742915,9.8708614375Q107.3366235,9.7949104375,107.4060985,9.7254344375Q107.4755745,9.6559594375,107.5515255,9.5936274375Q107.6274765,9.5312964375,107.7091715,9.4767094375Q107.7908665,9.4221224375,107.8775225,9.3758054375Q107.9641725,9.3294894375,108.0549425,9.2918894375Q108.1457225,9.2542894375,108.2397425,9.2257677375Q108.3337625,9.1972462375,108.4301325,9.1780778375Q108.5265025,9.1589095375,108.6242825,9.1492789875Q108.7220625,9.1396484375,108.8203125,9.1396484375Q108.91856250000001,9.1396484375,109.0163425,9.1492789875Q109.1141225,9.1589095375,109.2104925,9.1780778375Q109.3068625,9.1972462375,109.4008825,9.2257677375Q109.4949025,9.2542894375,109.5856825,9.2918894375Q109.6764525,9.3294894375,109.7631025,9.3758054375Q109.8497625,9.4221224375,109.9314525,9.4767094375Q110.0131525,9.5312964375,110.0891025,9.5936274375Q110.1650525,9.6559594375,110.2345225,9.7254344375Q110.3040025,9.7949104375,110.3663325,9.8708614375Q110.4286625,9.9468124375,110.4832525,10.0285074375Q110.5378425,10.1102024375,110.5841525,10.1968584375Q110.6304725,10.2835084375,110.6680725,10.3742784375Q110.7056725,10.4650584375,110.7341925,10.5590784375Q110.7627125,10.6530984375,110.7818825,10.7494684375Q110.8010525,10.8458384375,110.8106825,10.9436184375Q110.8203125,11.0413984375,110.8203125,11.1396484375Z" fill="#FFFFFF" fill-opacity="1"/></g><g><path d="M97.1796875,9.1396484375C97.1796875,9.1396484375,99.1796875,13.1396484375,99.1796875,13.1396484375C99.1796875,13.1396484375,95.1796875,13.1396484375,95.1796875,13.1396484375C95.1796875,13.1396484375,97.1796875,9.1396484375,97.1796875,9.1396484375Z" fill-rule="evenodd" fill="#FFFFFF" fill-opacity="1"/></g></g></svg>