<svg xmlns="http://www.w3.org/2000/svg" xmlns:xlink="http://www.w3.org/1999/xlink" fill="none" version="1.1" width="32" height="32" viewBox="0 0 32 32"><g><g style="opacity:0;"><rect x="0" y="0" width="32" height="32" rx="0" fill="#FFFFFF" fill-opacity="1"/><rect x="0.5" y="0.5" width="31" height="31" rx="0" fill-opacity="0" stroke-opacity="0" stroke="#171F26" fill="none" stroke-width="1"/></g><g><path d="M4,21.5L4,25.0094Q4,25.835,4.572218,26.4144Q5.150469,27,5.981715,27L16,27L26.0183,27Q26.8501,27,27.4286,26.4127Q28,25.8327,28,25.0076L28,8.992370000000001Q28,8.15687,27.3955,7.57099Q26.8064,7,25.9849,7L16.4142,7L15.7071,6.292893L14.41421,5L9.5,5L5.990628,5Q5.154579,5,4.56928,5.605377Q4,6.194184,4,7.01514L4,21.5ZM6,25L6,7.01514L5.990628,7L13.58579,7L14.29289,7.70711L15.5858,9L25.9849,9L26,8.992370000000001L26,25L16,25L6,25Z" fill-rule="evenodd" fill="#171F26" fill-opacity="0.30000001192092896"/></g><g><path d="M16.999923409729004,15.41421L19.292813409729003,17.70711L20.707033409729004,16.29289L16.707033409729004,12.292893Q16.566383409729003,12.152241,16.382613409729004,12.0761205Q16.198833409729005,12,15.999923409729004,12Q15.801013409729004,12,15.617243409729003,12.0761205Q15.433473409729004,12.152241,15.292813409729003,12.292893L11.292817890629005,16.29289L12.707033409729004,17.70711L14.999923409729004,15.41421L14.999923409729004,22L16.999923409729004,22L16.999923409729004,15.41421Z" fill-rule="evenodd" fill="#171F26" fill-opacity="0.30000001192092896"/></g></g></svg>