<?xml version="1.0" standalone="no"?><!DOCTYPE svg PUBLIC "-//W3C//DTD SVG 1.1//EN" "http://www.w3.org/Graphics/SVG/1.1/DTD/svg11.dtd"><svg t="1723197315642" class="icon" viewBox="0 0 1024 1024" version="1.1" xmlns="http://www.w3.org/2000/svg" p-id="7018" xmlns:xlink="http://www.w3.org/1999/xlink" width="200" height="200"><path d="M357.546667 523.52c-4.266667-15.786667-8.533333-36.266667-17.493334-66.133333-8.96-29.866667-14.506667-36.693333-20.053333-52.48-5.546667-15.786667-12.8-30.72-21.333333-50.346667a516.266667 516.266667 0 0 1-19.626667-61.44 61.013333 61.013333 0 0 1 11.946667-49.92 60.16 60.16 0 0 1 58.026666-14.933333c16.170667 7.082667 29.866667 18.773333 39.253334 33.706666 12.586667 20.138667 22.912 41.6 30.72 64 12.032 30.72 20.736 62.592 26.026666 95.146667l3.84 19.2V390.826667c0-42.666667-2.56-77.653333 0-125.44 0-5.546667 2.56-25.173333 3.413334-30.72a50.773333 50.773333 0 0 1 28.586666-42.666667c18.986667-8.533333 40.746667-8.533333 59.733334 0 17.024 7.594667 28.373333 24.064 29.44 42.666667 0 4.693333 3.84 42.666667 3.84 47.36V437.333333c1.024-56.32 5.845333-112.469333 14.506666-168.106666a63.573333 63.573333 0 0 1 33.706667-39.68 58.453333 58.453333 0 0 1 59.733333 10.24c12.288 13.482667 19.541333 30.848 20.48 49.066666V440.32c3.84-11.946667 8.106667-23.04 11.52-31.573333 3.413333-8.533333 10.24-26.026667 15.36-36.693334 5.205333-10.154667 11.093333-20.010667 17.493334-29.44a58.88 58.88 0 0 1 28.586666-23.893333 42.666667 42.666667 0 0 1 55.466667 25.173333c2.56 15.530667 2.56 31.402667 0 46.933334a398.592 398.592 0 0 1-14.933333 70.4c-5.546667 19.2-11.52 52.48-14.506667 68.266666-2.986667 15.786667-9.813333 58.88-15.36 77.653334a252.288 252.288 0 0 1-33.706667 62.72 308.906667 308.906667 0 0 0-50.773333 77.226666 172.885333 172.885333 0 0 0-4.266667 42.666667c-0.085333 13.226667 1.664 26.453333 5.12 39.253333a247.466667 247.466667 0 0 1-52.48 0c-16.64-2.56-37.12-35.84-42.666666-46.08a16.213333 16.213333 0 0 0-29.013334 0c-9.813333 16.213333-30.293333 45.653333-44.8 47.36-28.586667 3.413333-87.466667 0-133.973333 0 0 0 8.106667-42.666667-9.813333-58.026666-17.92-15.36-35.413333-33.28-48.64-45.226667l-35.413334-39.253333c-11.946667-15.36-26.88-46.506667-52.906666-85.333334-14.933333-21.333333-42.666667-46.506667-54.613334-67.413333a74.666667 74.666667 0 0 1-8.106666-56.32 51.626667 51.626667 0 0 1 58.453333-36.693333 85.333333 85.333333 0 0 1 52.906667 23.04c11.434667 9.898667 22.101333 20.565333 32 32 6.826667 8.106667 8.533333 11.946667 16.213333 21.76 7.68 9.813333 12.8 19.626667 8.96 5.12" fill="#FFFFFF" p-id="7019"></path><path d="M487.637333 206.506667a34.773333 34.773333 0 0 0-19.541333 30.592c-0.426667 2.56-1.237333 8.618667-1.962667 14.805333a180.608 180.608 0 0 0-1.28 14.336c-1.706667 31.189333-1.152 56.277333-0.597333 82.346667 0.298667 13.482667 0.597333 27.221333 0.597333 42.24v49.493333a16 16 0 0 1-31.701333 3.114667l-3.925333-19.754667a449.450667 449.450667 0 0 0-25.173334-91.861333l-0.170666-0.554667a303.104 303.104 0 0 0-29.141334-60.757333 72.32 72.32 0 0 0-31.061333-27.093334c-14.506667-3.626667-29.866667 0.341333-40.789333 10.538667-7.68 10.154667-10.666667 23.125333-8.234667 35.669333 5.034667 19.968 11.349333 39.637333 18.773333 58.88l6.485334 14.506667c5.674667 12.8 10.965333 24.576 15.189333 36.608 1.792 5.12 3.498667 8.96 5.632 13.738667l2.688 6.186666c3.413333 7.936 7.253333 17.664 11.946667 33.28 6.144 20.394667 10.24 37.205333 13.525333 50.432l3.072 12.202667c0.853333 1.322667 1.493333 2.816 1.92 4.394667 0.512 1.962667 0.938667 3.84 1.28 5.418666a25.728 25.728 0 0 1 0.512 6.4 16.298667 16.298667 0 0 1-26.538667 12.117334 21.290667 21.290667 0 0 1-2.56-2.304 63.786667 63.786667 0 0 1-4.693333-6.016l-0.213333-0.298667-0.384-0.469333c-1.450667-2.005333-2.901333-4.010667-4.437334-5.973334a238.208 238.208 0 0 1-8.362666-11.392l-0.597334-0.853333a115.2 115.2 0 0 0-6.826666-9.045333 298.282667 298.282667 0 0 0-30.805334-30.72 69.333333 69.333333 0 0 0-43.008-18.730667 15.872 15.872 0 0 1-1.664-0.213333 35.626667 35.626667 0 0 0-40.277333 25.130666c-3.712 14.933333-1.408 30.72 6.4 43.989334l0.170667 0.213333c4.992 8.746667 13.738667 19.072 24.234666 30.848l3.712 4.181333c8.96 10.026667 18.730667 20.906667 25.856 31.146667l0.213334 0.256c13.312 19.882667 23.765333 37.76 32.256 52.309333l0.170666 0.341334c8.490667 14.506667 14.421333 24.746667 19.456 31.36l34.474667 38.186666c5.162667 4.693333 10.965333 10.24 16.938667 16l5.333333 5.077334c8.234667 7.850667 16.810667 15.914667 25.429333 23.296 7.68 6.613333 11.818667 15.402667 14.08 23.296 2.261333 7.978667 2.986667 16.256 3.114667 23.381333 0.085333 2.645333 0 5.205333-0.085333 7.68 10.709333 0.128 21.76 0.384 32.64 0.597333l23.637333 0.512c24.192 0.426667 44.842667 0.426667 57.898667-1.152 0 0 1.28-0.426667 3.882666-2.517333 2.986667-2.346667 6.485333-5.845333 10.197334-10.24 7.253333-8.533333 14.165333-18.901333 18.858666-26.581333a32.213333 32.213333 0 0 1 57.173334 0.426666c2.474667 4.608 8.405333 14.506667 15.488 23.381334 3.584 4.48 7.125333 8.32 10.325333 11.008 2.986667 2.517333 4.650667 3.157333 4.992 3.285333 10.24 1.066667 20.48 1.408 30.72 1.109333a163.498667 163.498667 0 0 1-1.706667-24.362666c-0.384-15.616 1.194667-31.146667 4.693334-46.378667a15.701333 15.701333 0 0 1 1.024-3.157333 324.821333 324.821333 0 0 1 52.906666-80.64c12.928-17.664 23.338667-37.077333 30.933334-57.6 3.882667-13.482667 8.448-39.552 11.861333-58.922667 1.152-6.613333 2.133333-12.416 2.986667-16.725333l1.109333-5.973334c3.157333-16.981333 8.576-45.909333 13.738667-63.744l0.085333-0.298666a381.866667 381.866667 0 0 0 14.421333-68.266667c2.133333-13.269333 2.261333-26.794667 0.256-40.106667a26.666667 26.666667 0 0 0-34.133333-14.506666 42.88 42.88 0 0 0-21.162667 18.005333c-6.016 8.832-11.52 18.048-16.384 27.562667-4.181333 8.704-9.642667 22.4-13.312 31.658666l-1.536 3.84c-3.328 8.405333-7.466667 19.114667-11.136 30.549334l-11.477333-3.712h-19.754667V289.28a62.933333 62.933333 0 0 0-15.658666-37.973333 42.453333 42.453333 0 0 0-42.197334-7.082667 47.573333 47.573333 0 0 0-24.405333 28.544 1221.12 1221.12 0 0 0-14.165333 164.693333v0.384h-32V282.026667v-0.042667c0-0.170667 0-0.810667-0.128-2.048a2951.936 2951.936 0 0 0-1.92-22.016c-0.768-8.917333-1.706667-18.816-1.792-22.613333a33.92 33.92 0 0 0-19.968-28.714667 57.002667 57.002667 0 0 0-46.421334-0.085333z m98.645334 32l-0.128-1.749334-0.128-2.048V234.666667v-0.938667a65.92 65.92 0 0 0-38.912-56.32m39.168 61.098667a79.616 79.616 0 0 1 29.952-23.850667 74.453333 74.453333 0 0 1 77.397333 14.336 94.933333 94.933333 0 0 1 24.661333 59.861333V358.4c4.565333-8.405333 9.557333-16.597333 14.933334-24.533333 8.533333-13.653333 21.205333-24.149333 36.181333-30.037334h0.085333a58.666667 58.666667 0 0 1 76.245334 34.56 15.872 15.872 0 0 1 0.768 2.944c2.816 17.109333 2.816 34.56 0.042666 51.712a414.336 414.336 0 0 1-15.445333 72.746667c-4.650667 16.213333-9.685333 43.221333-12.928 60.501333-0.426667 2.218667-0.853333 4.266667-1.152 6.186667a1143.893333 1143.893333 0 0 0-2.56 13.994667c-3.413333 19.712-8.704 49.92-13.226667 65.194666a268.373333 268.373333 0 0 1-37.12 68.864 292.693333 292.693333 0 0 0-47.445333 71.722667c-2.645333 12.202667-3.84 24.661333-3.498667 37.12v0.426667c-0.042667 11.861333 1.493333 23.637333 4.565334 34.986666a16 16 0 0 1-13.738667 20.138667 263.594667 263.594667 0 0 1-55.893333 0l-0.426667-0.042667-0.298667-0.042666a43.648 43.648 0 0 1-20.736-10.410667 109.397333 109.397333 0 0 1-14.848-15.616 210.005333 210.005333 0 0 1-18.730666-28.245333l-0.256-0.469334c0-0.085333-0.085333-0.128-0.170667-0.128h-0.128l-0.085333 0.085334a252.416 252.416 0 0 1-22.784 32.341333 108.032 108.032 0 0 1-14.634667 14.592 40.533333 40.533333 0 0 1-19.797333 9.173333c-15.573333 1.877333-38.528 1.834667-62.421334 1.408l-24.32-0.512c-16.768-0.384-33.578667-0.768-49.109333-0.768a16 16 0 0 1-15.744-18.944l15.744 2.944-15.744-2.986666 0.085333-0.256 0.170667-1.109334a105.898667 105.898667 0 0 0 1.28-18.645333 60.288 60.288 0 0 0-1.877333-15.104 15.872 15.872 0 0 0-4.138667-7.765333 681.685333 681.685333 0 0 1-26.709333-24.490667l-5.589334-5.333333c-6.186667-5.930667-11.733333-11.221333-16.64-15.701334a16.128 16.128 0 0 1-1.152-1.152l-35.413333-39.253333a16.469333 16.469333 0 0 1-0.768-0.853333c-6.442667-8.32-13.44-20.309333-21.162667-33.578667l-1.194666-2.090667c-8.448-14.506667-18.432-31.573333-31.146667-50.474666a335.957333 335.957333 0 0 0-23.338667-27.989334l-3.84-4.266666c-10.026667-11.349333-21.077333-24.064-28.032-36.181334a90.666667 90.666667 0 0 1-9.813333-68.266666l0.128-0.469334a67.626667 67.626667 0 0 1 75.733333-48.213333c23.04 1.706667 44.842667 11.264 61.738667 27.050667 4.778667 4.181333 9.472 8.448 13.994667 12.885333l-1.194667-4.053333c-4.266667-14.293333-7.68-22.912-10.666667-29.781334l-2.218666-4.992a218.453333 218.453333 0 0 1-6.954667-17.024c-3.754667-10.666667-8.234667-20.736-13.696-32.981333a1762.389333 1762.389333 0 0 1-7.210667-16.256l-0.213333-0.597333a532.309333 532.309333 0 0 1-20.437333-64.085334 77.013333 77.013333 0 0 1 16.469333-64.512 76.16 76.16 0 0 1 73.472-18.901333c0.725333 0.170667 1.450667 0.426667 2.133333 0.725333 19.114667 8.362667 35.242667 22.229333 46.378667 39.850667v0.042667c12.032 19.2 22.058667 39.509333 29.952 60.672-0.085333-15.402667 0.170667-31.573333 1.109333-49.28a201.813333 201.813333 0 0 1 1.493334-16.725334c0.725333-5.973333 1.536-11.946667 2.005333-15.189333 1.706667-23.850667 16-44.970667 37.546667-55.381333l0.426666-0.170667a88.96 88.96 0 0 1 72.789334 0m-203.306667 354.304z" fill="#000000" p-id="7020"></path><path d="M672 701.013333v-147.2a16 16 0 0 0-32 0v147.2a16 16 0 0 0 32 0zM587.093333 701.013333l-0.426666-147.328a15.957333 15.957333 0 0 0-32 0.085334l0.426666 147.370666a15.957333 15.957333 0 0 0 32-0.085333zM469.546667 553.813333l0.853333 146.944c0.042667 8.96 7.253333 16.085333 16.085333 16.042667a16.042667 16.042667 0 0 0 15.914667-16.213333l-0.853333-146.986667a16.042667 16.042667 0 0 0-16.085334-16 16.042667 16.042667 0 0 0-15.914666 16.213333z" fill="#000000" p-id="7021"></path></svg>