<?xml version="1.0" standalone="no"?><!DOCTYPE svg PUBLIC "-//W3C//DTD SVG 1.1//EN" "http://www.w3.org/Graphics/SVG/1.1/DTD/svg11.dtd"><svg t="1723428564797" class="icon" viewBox="0 0 1024 1024" version="1.1" xmlns="http://www.w3.org/2000/svg" p-id="4030" xmlns:xlink="http://www.w3.org/1999/xlink" width="200" height="200"><path d="M522.666667 394.666667c-70.72 0-128 57.28-128 128s57.28 128 128 128 128-57.28 128-128-57.28-128-128-128zM808.746667 490.666667c-14.72-133.44-120.64-239.36-254.08-254.08V170.666667h-64v65.92c-133.44 14.72-239.36 120.64-254.08 254.08H170.666667v64h65.92c14.72 133.44 120.64 239.36 254.08 254.08V874.666667h64v-65.92c133.44-14.72 239.36-120.64 254.08-254.08H874.666667v-64h-65.92zM522.666667 746.666667C398.826667 746.666667 298.666667 646.506667 298.666667 522.666667S398.826667 298.666667 522.666667 298.666667 746.666667 398.826667 746.666667 522.666667 646.506667 746.666667 522.666667 746.666667z" fill="#8a8a8a" p-id="4031"></path></svg>