<svg xmlns="http://www.w3.org/2000/svg" xmlns:xlink="http://www.w3.org/1999/xlink" fill="none" version="1.1" width="16" height="16" viewBox="0 0 16 16"><g><g><path d="M8.488400390625,1.281529L10.265420390625,4.85552L14.466050390625,5.31773C14.669550390625,5.34013,14.840450390625,5.46349,14.905650390625,5.63505C14.970850390625,5.8066,14.918850390625,5.99596,14.771750390625,6.1221L11.649150390625,8.801079999999999L12.479150390625,12.6773C12.517950390625,12.8588,12.432950390625,13.0435,12.261850390625,13.1497C12.090650390625,13.2559,11.864850390625,13.2639,11.684550390625,13.1703L8.000000390625,11.2567L4.315460390625001,13.1703C4.135130390625,13.2639,3.909380390625,13.2559,3.738190390625,13.1497C3.567010390625,13.0435,3.482020390625,12.8588,3.520870390625,12.6773L4.3508703906249995,8.801079999999999L1.228208390625,6.1221C1.081175190625,5.99596,1.029136290625,5.8066,1.094355790625,5.63505C1.159575190625,5.46349,1.330499390625,5.34013,1.534000390625,5.31773L5.734580390625,4.85552L7.511600390625,1.281529C7.596650390625,1.110476,7.788300390625,1,8.000000390625,1C8.211700390625001,1,8.403350390625,1.110476,8.488400390625,1.281529ZM6.630010390625,5.30073L8.000000390625,2.54536L9.369990390625,5.30073Q9.425920390625,5.41322,9.507940390625,5.50838Q9.589960390625,5.60354,9.692970390625,5.67546Q9.795980390625,5.74737,9.913570390625,5.79157Q10.031170390625,5.83578,10.156040390625,5.84952L13.167450390625,6.18088L10.998000390625,8.04212Q10.895630390625,8.129950000000001,10.820180390625,8.241769999999999Q10.744730390625,8.35359,10.701610390625,8.4814Q10.658490390625,8.60922,10.650770390625,8.74389Q10.643060390625,8.87856,10.671300390625,9.01046L11.275250390625,11.8309L8.460900390625,10.36926Q8.354110390625,10.3138,8.237220390625,10.28526Q8.120330390625,10.25671,8.000000390625,10.25671Q7.879670390625,10.25671,7.762780390625,10.28526Q7.645890390625,10.3138,7.539110390625,10.36926L4.7247903906249995,11.8309L5.328700390625,9.01046Q5.356950390625,8.87856,5.349230390625,8.74389Q5.341510390625,8.60922,5.298390390625,8.4814Q5.255270390625,8.35359,5.179820390625,8.241769999999999Q5.104380390625,8.129950000000001,5.002000390625,8.04212L2.832520390625,6.18088L5.843960390625,5.84952Q5.968830390625,5.83578,6.086430390625,5.79157Q6.204020390625,5.74737,6.307030390625,5.67546Q6.410040390625,5.60354,6.492060390625,5.50838Q6.574080390625,5.41322,6.630010390625,5.30073Z" fill-rule="evenodd" fill="#FFAA2A" fill-opacity="1"/></g></g></svg>