<?xml version="1.0" encoding="UTF-8"?>
<svg width="271px" height="221px" viewBox="0 0 271 221" version="1.1" xmlns="http://www.w3.org/2000/svg" xmlns:xlink="http://www.w3.org/1999/xlink">
    <title>Empty空状态/暂无数据/大</title>
    <defs>
        <linearGradient x1="50%" y1="0%" x2="50%" y2="100%" id="linearGradient-1">
            <stop stop-color="#E7F0FB" offset="0%"></stop>
            <stop stop-color="#EAF2FC" stop-opacity="0" offset="100%"></stop>
        </linearGradient>
        <linearGradient x1="50%" y1="0%" x2="50%" y2="117.483424%" id="linearGradient-2">
            <stop stop-color="#E7F0FB" offset="0%"></stop>
            <stop stop-color="#EAF2FC" stop-opacity="0" offset="100%"></stop>
        </linearGradient>
        <linearGradient x1="50%" y1="8.44539164%" x2="50%" y2="105.417855%" id="linearGradient-3">
            <stop stop-color="#E7F0FB" offset="0%"></stop>
            <stop stop-color="#EAF2FC" stop-opacity="0" offset="100%"></stop>
        </linearGradient>
        <linearGradient x1="66.8576864%" y1="4.65215506%" x2="66.8576864%" y2="100%" id="linearGradient-4">
            <stop stop-color="#E7F0FB" offset="0%"></stop>
            <stop stop-color="#EAF2FC" stop-opacity="0" offset="100%"></stop>
        </linearGradient>
        <linearGradient x1="50%" y1="0%" x2="50%" y2="59.1383714%" id="linearGradient-5">
            <stop stop-color="#E7F0FB" offset="0%"></stop>
            <stop stop-color="#EAF2FC" stop-opacity="0" offset="100%"></stop>
        </linearGradient>
        <linearGradient x1="50%" y1="14.4708471%" x2="50%" y2="49.5539084%" id="linearGradient-6">
            <stop stop-color="#E7F0FB" offset="0%"></stop>
            <stop stop-color="#EAF2FC" stop-opacity="0" offset="100%"></stop>
        </linearGradient>
        <linearGradient x1="50%" y1="0%" x2="50%" y2="78.3472875%" id="linearGradient-7">
            <stop stop-color="#E7F0FB" offset="0%"></stop>
            <stop stop-color="#EAF2FC" stop-opacity="0" offset="100%"></stop>
        </linearGradient>
        <linearGradient x1="39.5346601%" y1="0%" x2="54.4611718%" y2="100%" id="linearGradient-8">
            <stop stop-color="#EAF1FB" offset="0%"></stop>
            <stop stop-color="#EAF1FB" stop-opacity="0" offset="100%"></stop>
        </linearGradient>
        <linearGradient x1="39.4227922%" y1="0%" x2="54.5088589%" y2="100%" id="linearGradient-9">
            <stop stop-color="#EAF1FB" offset="0%"></stop>
            <stop stop-color="#EAF1FB" stop-opacity="0" offset="100%"></stop>
        </linearGradient>
        <linearGradient x1="50%" y1="60.3966137%" x2="50%" y2="100%" id="linearGradient-10">
            <stop stop-color="#9CC4FF" stop-opacity="0" offset="0%"></stop>
            <stop stop-color="#6392FF" offset="100%"></stop>
        </linearGradient>
        <path d="M43.4449988,61.3235294 L43.4438971,61.3079187 C19.8582153,61.1529273 5.49279162,59.8438093 0.347626127,57.3805647 C0.973635694,49.6068766 0.973635694,43.7645702 0.347626127,39.8536456 C-0.591388225,33.9872587 0.371165173,29.0533736 3.2449499,25.5273687 C4.17197723,24.3899478 4.88686282,23.9013681 5.54370605,23.4949098 L5.73917184,23.3748693 C7.03272333,22.5834668 8.15574507,21.8938619 10.341032,16.7722955 C12.2597625,12.2754463 15.0841608,7.56309822 18.814227,2.63525119 C20.0706635,0.975353828 22.0322149,-3.61956737e-06 24.1140151,0 L24.1140151,0 L67.6506908,3.19744231e-13 C69.7324909,-3.61956704e-06 71.6940424,0.975353828 72.9504789,2.63525119 C76.6805451,7.56309822 79.5049434,12.2754463 81.4236739,16.7722955 C83.3357999,21.2536661 84.4346292,22.3418162 85.546038,23.0740101 L85.7368426,23.1966089 C86.5336591,23.6976309 87.3609718,24.1055926 88.519756,25.5273687 C91.3935407,29.0533736 92.3560941,33.9872587 91.4170798,39.8536456 C90.7910702,43.7645702 90.7910702,49.6068766 91.4170798,57.3805647 C86.271893,59.8438195 71.9063718,61.1529381 48.3205162,61.3079206 L48.319707,61.3235294 C47.5249848,61.3235294 46.7397126,61.3223465 45.9638905,61.3199807 L45.8008154,61.3199807 C45.0249933,61.3223465 44.2397211,61.3235294 43.4449988,61.3235294 Z" id="path-11"></path>
        <linearGradient x1="50%" y1="31.428698%" x2="47.2450946%" y2="100%" id="linearGradient-13">
            <stop stop-color="#9CC4FF" stop-opacity="0" offset="0%"></stop>
            <stop stop-color="#6392FF" offset="100%"></stop>
        </linearGradient>
        <linearGradient x1="50%" y1="18.8678038%" x2="47.2450946%" y2="77.9724509%" id="linearGradient-14">
            <stop stop-color="#9CC4FF" stop-opacity="0" offset="0%"></stop>
            <stop stop-color="#6392FF" offset="100%"></stop>
        </linearGradient>
        <linearGradient x1="77.3396204%" y1="48.9709282%" x2="11.1635965%" y2="49.8005189%" id="linearGradient-15">
            <stop stop-color="#88BBFF" stop-opacity="0" offset="0%"></stop>
            <stop stop-color="#5085FF" stop-opacity="0.076596987" offset="100%"></stop>
        </linearGradient>
        <linearGradient x1="100%" y1="10.027374%" x2="31.1207362%" y2="10.027374%" id="linearGradient-16">
            <stop stop-color="#86B9FD" stop-opacity="0" offset="0%"></stop>
            <stop stop-color="#4E83FB" stop-opacity="0.225143753" offset="100%"></stop>
        </linearGradient>
        <path d="M31.0541368,0 L31.054,0.001 L51.2988154,0.0238405056 C52.1776585,0.431579137 52.8215641,0.797803285 53.230532,1.12251295 C54.6085641,2.21663383 55.834962,3.71958301 56.9157039,5.04210872 C58.2219471,6.64058507 59.8323452,9.33865217 61.7468981,13.13631 L61.9780709,13.5973237 C62.2919213,14.226296 62.0364646,14.9906047 61.4074924,15.3044551 C61.2211017,15.3974621 61.014732,15.4432991 60.8064939,15.4379437 C42.8143387,14.9752225 32.7801712,14.7357678 30.7039915,14.7195795 C28.6334676,14.735992 18.8341075,14.9749637 1.30656389,15.4365193 C1.09744097,15.4420261 0.890184586,15.3959022 0.703133771,15.3022288 C0.0746064363,14.9874677 -0.179751352,14.2227813 0.135009749,13.594254 L0.135009749,13.594254 C2.15790245,9.55481616 3.85084031,6.70410416 5.21380484,5.04210872 C6.29837799,3.71958301 7.5291236,2.21663383 8.91204093,1.12251295 C9.32245868,0.797803285 9.9686469,0.431579137 10.8506056,0.0238405056 L10.8506056,0.0238405056 L30.357,0.001 L30.3579264,0 L31.0541368,0 Z" id="path-17"></path>
        <linearGradient x1="50%" y1="75.8389641%" x2="50%" y2="0%" id="linearGradient-19">
            <stop stop-color="#9CC4FF" stop-opacity="0" offset="0%"></stop>
            <stop stop-color="#6392FF" offset="100%"></stop>
        </linearGradient>
        <linearGradient x1="50%" y1="71.7370049%" x2="50%" y2="0%" id="linearGradient-20">
            <stop stop-color="#9CC4FF" stop-opacity="0" offset="0%"></stop>
            <stop stop-color="#6392FF" offset="100%"></stop>
        </linearGradient>
        <linearGradient x1="50%" y1="39.6105733%" x2="50%" y2="0%" id="linearGradient-21">
            <stop stop-color="#79B3FF" stop-opacity="0" offset="0%"></stop>
            <stop stop-color="#447CFF" offset="100%"></stop>
        </linearGradient>
        <linearGradient x1="82.9395189%" y1="49.8275068%" x2="6.63876624%" y2="50%" id="linearGradient-22">
            <stop stop-color="#9CC4FF" stop-opacity="0" offset="0%"></stop>
            <stop stop-color="#6392FF" offset="100%"></stop>
        </linearGradient>
        <linearGradient x1="12.3971153%" y1="72.3329067%" x2="80.282039%" y2="0.294088534%" id="linearGradient-23">
            <stop stop-color="#9CC4FF" stop-opacity="0" offset="0%"></stop>
            <stop stop-color="#6392FF" offset="100%"></stop>
        </linearGradient>
        <linearGradient x1="14.6547521%" y1="73.3216367%" x2="50%" y2="10.920474%" id="linearGradient-24">
            <stop stop-color="#9CC4FF" stop-opacity="0" offset="0%"></stop>
            <stop stop-color="#6392FF" offset="100%"></stop>
        </linearGradient>
        <linearGradient x1="51.541135%" y1="46.4949927%" x2="50%" y2="57.9695295%" id="linearGradient-25">
            <stop stop-color="#86B9FD" stop-opacity="0" offset="0%"></stop>
            <stop stop-color="#4E83FB" stop-opacity="0.225143753" offset="100%"></stop>
        </linearGradient>
        <linearGradient x1="23.2537933%" y1="76.2046375%" x2="65.139578%" y2="21.7494001%" id="linearGradient-26">
            <stop stop-color="#97C2FF" stop-opacity="0" offset="0%"></stop>
            <stop stop-color="#5E8FFF" offset="100%"></stop>
        </linearGradient>
        <linearGradient x1="43.6186469%" y1="72.3291882%" x2="46.5587859%" y2="24.2646392%" id="linearGradient-27">
            <stop stop-color="#6392FF" offset="0%"></stop>
            <stop stop-color="#6996FF" stop-opacity="0.0397727273" offset="100%"></stop>
        </linearGradient>
        <linearGradient x1="105.736614%" y1="40.7449975%" x2="12.1044003%" y2="60.2963933%" id="linearGradient-28">
            <stop stop-color="#9CC4FF" stop-opacity="0" offset="0%"></stop>
            <stop stop-color="#6392FF" offset="100%"></stop>
        </linearGradient>
        <linearGradient x1="53.9870941%" y1="-59.0391995%" x2="53.9870941%" y2="115.641224%" id="linearGradient-29">
            <stop stop-color="#F1F5FF" stop-opacity="0" offset="0%"></stop>
            <stop stop-color="#CDDBFE" offset="100%"></stop>
        </linearGradient>
        <linearGradient x1="43.6186469%" y1="100%" x2="43.6186469%" y2="19.6237302%" id="linearGradient-30">
            <stop stop-color="#6392FF" offset="0%"></stop>
            <stop stop-color="#6996FF" stop-opacity="0" offset="100%"></stop>
        </linearGradient>
        <linearGradient x1="43.6186469%" y1="100%" x2="43.6186469%" y2="6.87437654%" id="linearGradient-31">
            <stop stop-color="#6392FF" offset="0%"></stop>
            <stop stop-color="#6996FF" stop-opacity="0.0397727273" offset="100%"></stop>
        </linearGradient>
        <linearGradient x1="50%" y1="47.0615243%" x2="49.3589852%" y2="52.7717052%" id="linearGradient-32">
            <stop stop-color="#DAE4FE" offset="0%"></stop>
            <stop stop-color="#DCE6FE" stop-opacity="0" offset="100%"></stop>
        </linearGradient>
        <linearGradient x1="50%" y1="0%" x2="50%" y2="100%" id="linearGradient-33">
            <stop stop-color="#6392FF" offset="0%"></stop>
            <stop stop-color="#6392FF" stop-opacity="0" offset="100%"></stop>
        </linearGradient>
        <linearGradient x1="90.7772774%" y1="71.9716694%" x2="25.6406637%" y2="56.3612165%" id="linearGradient-34">
            <stop stop-color="#FFFFFF" stop-opacity="0" offset="0%"></stop>
            <stop stop-color="#FFFFFF" offset="100%"></stop>
        </linearGradient>
        <linearGradient x1="57.3232027%" y1="71.3548958%" x2="25.2831203%" y2="35.6935347%" id="linearGradient-35">
            <stop stop-color="#86B9FD" stop-opacity="0" offset="0%"></stop>
            <stop stop-color="#4E83FB" stop-opacity="0.225143753" offset="100%"></stop>
        </linearGradient>
        <linearGradient x1="56.3568318%" y1="66.8490907%" x2="29.8701101%" y2="35.7138612%" id="linearGradient-36">
            <stop stop-color="#86B9FD" stop-opacity="0" offset="0%"></stop>
            <stop stop-color="#4E83FB" stop-opacity="0.225143753" offset="100%"></stop>
        </linearGradient>
        <linearGradient x1="50%" y1="50%" x2="50%" y2="77.7295762%" id="linearGradient-37">
            <stop stop-color="#A2C7FF" stop-opacity="0" offset="0%"></stop>
            <stop stop-color="#6996FF" offset="100%"></stop>
        </linearGradient>
        <linearGradient x1="50%" y1="34.6102269%" x2="50%" y2="100%" id="linearGradient-38">
            <stop stop-color="#FFDCC0" stop-opacity="0" offset="0%"></stop>
            <stop stop-color="#F9944C" offset="100%"></stop>
        </linearGradient>
        <linearGradient x1="50%" y1="0%" x2="50%" y2="78.972111%" id="linearGradient-39">
            <stop stop-color="#A2C7FF" stop-opacity="0" offset="0%"></stop>
            <stop stop-color="#6996FF" offset="100%"></stop>
        </linearGradient>
        <linearGradient x1="50%" y1="-6.48145833%" x2="50%" y2="109.687647%" id="linearGradient-40">
            <stop stop-color="#F4F8FD" offset="0%"></stop>
            <stop stop-color="#DBE6FF" offset="100%"></stop>
        </linearGradient>
        <linearGradient x1="51.8776116%" y1="49.2615611%" x2="48.5088169%" y2="50.9166769%" id="linearGradient-41">
            <stop stop-color="#6392FE" stop-opacity="0" offset="0%"></stop>
            <stop stop-color="#3674FF" offset="100%"></stop>
        </linearGradient>
        <filter x="0.0%" y="-0.0%" width="100.0%" height="100.0%" filterUnits="objectBoundingBox" id="filter-42">
            <feGaussianBlur stdDeviation="0" in="SourceGraphic"></feGaussianBlur>
        </filter>
        <linearGradient x1="50%" y1="-6.48145833%" x2="50%" y2="109.687647%" id="linearGradient-43">
            <stop stop-color="#F4F8FD" offset="0%"></stop>
            <stop stop-color="#DBE6FF" offset="100%"></stop>
        </linearGradient>
        <linearGradient x1="70.4925654%" y1="-17.7858249%" x2="19.8850191%" y2="136.920965%" id="linearGradient-44">
            <stop stop-color="#6392FE" stop-opacity="0" offset="0%"></stop>
            <stop stop-color="#3674FF" offset="100%"></stop>
        </linearGradient>
        <filter x="-2.1%" y="-1.4%" width="104.1%" height="102.8%" filterUnits="objectBoundingBox" id="filter-45">
            <feGaussianBlur stdDeviation="0" in="SourceGraphic"></feGaussianBlur>
        </filter>
        <linearGradient x1="50%" y1="-6.48145833%" x2="50%" y2="109.687647%" id="linearGradient-46">
            <stop stop-color="#F4F8FD" offset="0%"></stop>
            <stop stop-color="#DBE6FF" offset="100%"></stop>
        </linearGradient>
        <linearGradient x1="70.3392786%" y1="-17.7858249%" x2="20.1102827%" y2="136.920965%" id="linearGradient-47">
            <stop stop-color="#6392FE" stop-opacity="0" offset="0%"></stop>
            <stop stop-color="#3674FF" offset="100%"></stop>
        </linearGradient>
        <filter x="-1.5%" y="-1.1%" width="103.1%" height="102.1%" filterUnits="objectBoundingBox" id="filter-48">
            <feGaussianBlur stdDeviation="0" in="SourceGraphic"></feGaussianBlur>
        </filter>
        <linearGradient x1="60.991129%" y1="13.6181519%" x2="33.1810784%" y2="95.4729369%" id="linearGradient-49">
            <stop stop-color="#6392FE" stop-opacity="0" offset="0%"></stop>
            <stop stop-color="#3674FF" offset="100%"></stop>
        </linearGradient>
        <filter x="-2.1%" y="-1.4%" width="104.1%" height="102.8%" filterUnits="objectBoundingBox" id="filter-50">
            <feGaussianBlur stdDeviation="0" in="SourceGraphic"></feGaussianBlur>
        </filter>
        <linearGradient x1="63.3186899%" y1="7.58208207%" x2="33.3068859%" y2="95.4729369%" id="linearGradient-51">
            <stop stop-color="#6392FE" stop-opacity="0" offset="0%"></stop>
            <stop stop-color="#3674FF" offset="100%"></stop>
        </linearGradient>
        <filter x="-1.5%" y="-1.1%" width="103.1%" height="102.1%" filterUnits="objectBoundingBox" id="filter-52">
            <feGaussianBlur stdDeviation="0" in="SourceGraphic"></feGaussianBlur>
        </filter>
        <linearGradient x1="120.232994%" y1="30.4411315%" x2="0%" y2="76.5648337%" id="linearGradient-53">
            <stop stop-color="#6392FE" stop-opacity="0" offset="0%"></stop>
            <stop stop-color="#3674FF" offset="100%"></stop>
        </linearGradient>
        <filter x="-1.4%" y="-2.9%" width="103.5%" height="105.1%" filterUnits="objectBoundingBox" id="filter-54">
            <feGaussianBlur stdDeviation="0" in="SourceGraphic"></feGaussianBlur>
        </filter>
        <linearGradient x1="-7.47536078%" y1="49.9984714%" x2="100%" y2="50%" id="linearGradient-55">
            <stop stop-color="#A0C6FF" stop-opacity="0" offset="0%"></stop>
            <stop stop-color="#6794FE" offset="100%"></stop>
        </linearGradient>
        <linearGradient x1="0%" y1="100%" x2="114.872401%" y2="100%" id="linearGradient-56">
            <stop stop-color="#A0C6FF" stop-opacity="0" offset="0%"></stop>
            <stop stop-color="#6794FE" offset="100%"></stop>
        </linearGradient>
    </defs>
    <g id="控件整理" stroke="none" stroke-width="1" fill="none" fill-rule="evenodd">
        <g id="自定义预设" transform="translate(-143.000000, -1964.000000)">
            <g id="编组" transform="translate(124.000000, 1919.000000)">
                <g id="编组-2" transform="translate(4.852941, 45.882353)">
                    <g id="编组-6">
                        <g id="bg">
                            <g id="编组-4备份" opacity="0.3" transform="translate(22.019048, 0.000000)">
                                <g id="编组-3" transform="translate(0.000000, 28.235294)">
                                    <rect id="矩形-2" fill="url(#linearGradient-1)" x="0" y="0" width="43.2352941" height="92.6470588"></rect>
                                    <rect id="矩形" fill="#FFFFFF" x="8.86877828" y="10.3488736" width="9.42307692" height="14.7841051"></rect>
                                    <rect id="矩形备份" fill="#FFFFFF" x="22.7262443" y="10.3488736" width="9.42307692" height="14.7841051"></rect>
                                </g>
                                <g id="编组-3备份-3" transform="translate(48.088235, 0.000000)">
                                    <polygon id="矩形-2" fill="url(#linearGradient-2)" points="0 0 33.8929116 0 33.8929116 123.129916 0 123.129916"></polygon>
                                    <rect id="矩形" fill="#FFFFFF" x="4.40167683" y="29.6641977" width="10.1238567" height="15.9730295"></rect>
                                    <rect id="矩形备份" fill="#FFFFFF" x="17.6067073" y="11.4093068" width="10.1238567" height="15.9730295"></rect>
                                </g>
                                <g id="编组-3备份-4" transform="translate(219.705882, 22.941176)">
                                    <rect id="矩形-2" fill="url(#linearGradient-3)" x="0" y="0" width="32.2058824" height="127.5"></rect>
                                    <rect id="矩形" fill="#FFFFFF" x="3.57843137" y="32.7977044" width="9.71288515" height="17.7654232"></rect>
                                    <rect id="矩形备份" fill="#FFFFFF" x="15.8473389" y="12.2991392" width="9.71288515" height="17.7654232"></rect>
                                </g>
                                <g id="编组-3备份" transform="translate(98.382353, 46.323529)">
                                    <rect id="矩形" fill="url(#linearGradient-4)" x="71.4705882" y="6.39027149" width="49.4117647" height="102.244344"></rect>
                                    <rect id="矩形备份-5" fill="url(#linearGradient-5)" x="35.2941176" y="16.4321267" width="36.1764706" height="102.244344"></rect>
                                    <rect id="矩形备份-6" fill="url(#linearGradient-6)" x="0" y="7.10542736e-15" width="36.1764706" height="102.244344"></rect>
                                    <rect id="矩形" fill="#FFFFFF" x="7.5" y="11.4111991" width="9.26470588" height="21.4530543"></rect>
                                    <rect id="矩形备份" fill="#FFFFFF" x="18.9705882" y="11.4111991" width="9.26470588" height="21.4530543"></rect>
                                </g>
                                <g id="编组-3备份-2" transform="translate(82.390109, 14.729963)">
                                    <rect id="矩形-2" fill="url(#linearGradient-7)" x="0" y="0" width="38.0510671" height="100.858272"></rect>
                                    <rect id="矩形" fill="#FFFFFF" x="7.96417683" y="12.3220514" width="9.7339939" height="5.02009499"></rect>
                                    <rect id="矩形备份-3" fill="#FFFFFF" x="7.96417683" y="19.1676354" width="9.7339939" height="5.02009499"></rect>
                                    <rect id="矩形备份-2" fill="#FFFFFF" x="20.3528963" y="12.3220514" width="9.7339939" height="5.02009499"></rect>
                                    <rect id="矩形备份-4" fill="#FFFFFF" x="20.3528963" y="19.1676354" width="9.7339939" height="5.02009499"></rect>
                                </g>
                            </g>
                            <path d="M37.2309724,91.4755903 C28.5427535,87.3362578 25.0282347,86.7741833 26.687416,89.7893667 C28.3465973,92.8045502 33.5453723,99.5100168 42.2837412,109.905766 C45.3107944,113.97751 45.0737102,115.292947 41.5724888,113.852079 C36.3206566,111.690778 22.8401873,96.676917 17.3374592,102.419022 C13.6689737,106.247091 22.8253424,115.210465 44.8065653,129.309142 C30.0893901,124.379919 23.2155989,123.272824 24.1851917,125.987856 C25.1547845,128.702888 33.1835804,135.718697 48.2715792,147.035284 C36.7025233,145.36709 30.9179954,144.950042 30.9179954,145.784139 C30.9179954,147.035284 47.6066053,158.990104 55.2157021,157.993822 C62.8247988,156.99754 80.5103432,144.443529 80.0718496,143.505469 C79.6333561,142.56741 64.3272604,146.546133 61.920918,146.546133 C59.5145756,146.546133 77.1803402,137.341529 76.0133889,134.913442 C75.2354214,133.294717 68.7000107,134.005205 56.4071569,137.044906 C71.9430269,122.515449 77.2686852,115.250721 72.384132,115.250721 C67.4995789,115.250721 61.7767689,117.553756 55.2157021,122.159827 C65.3301664,106.675471 68.8882391,98.5987178 65.8899202,97.9295688 C62.8916012,97.2604199 58.4398787,101.549279 52.5347527,110.796146 C50.8162684,111.967023 50.2814208,111.306164 50.93021,108.813569 C51.9033938,105.074677 61.3329201,81.5413289 53.8003731,81.5413289 C48.778675,81.5413289 46.5999415,84.8527493 47.2641726,91.4755903 C42.4863346,77.3970513 38.3198396,71.5184136 34.7646876,73.8396774 C31.2095355,76.1609412 32.0316304,82.0395788 37.2309724,91.4755903 Z" id="路径-8" fill="url(#linearGradient-8)" opacity="0.3" transform="translate(48.315151, 115.699783) rotate(-29.000000) translate(-48.315151, -115.699783) "></path>
                            <path d="M248.35397,89.0977548 C241.302656,85.7561061 238.45029,85.3023481 239.796873,87.7364806 C241.143456,90.170613 245.362756,95.5838803 252.454771,103.976282 C254.911512,107.263367 254.719096,108.325309 251.877523,107.162108 C247.615162,105.417307 236.674482,93.2967424 232.208496,97.9322957 C229.231171,101.022664 236.662434,108.258721 254.502283,119.640466 C242.557898,115.661146 236.979164,114.767397 237.766081,116.959219 C238.552997,119.151042 245.069127,124.814846 257.31447,133.950632 C247.925083,132.603914 243.23039,132.267234 243.23039,132.940593 C243.23039,133.950632 256.774781,143.601659 262.950285,142.797369 C269.125789,141.993079 283.479287,131.85833 283.123408,131.101042 C282.767529,130.343755 270.34518,133.555745 268.392204,133.555745 C266.439229,133.555745 280.776674,126.124945 279.829582,124.16477 C279.198188,122.857987 273.894081,123.431558 263.917264,125.885483 C276.526097,114.155974 280.848374,108.29122 276.884096,108.29122 C272.919817,108.29122 268.275214,110.150441 262.950285,113.868884 C271.159133,101.368492 274.046847,94.8481963 271.613426,94.3079979 C269.180006,93.7677995 265.567011,97.2301597 260.77444,104.695079 C259.379727,105.640318 258.945648,105.106812 259.472202,103.094561 C260.262033,100.076184 267.914988,81.0779083 261.801611,81.0779083 C257.726027,81.0779083 255.957778,83.7511905 256.496864,89.0977548 C252.619195,77.7322675 249.237689,72.9864924 246.352346,74.8604293 C243.467002,76.7343662 244.13421,81.4801413 248.35397,89.0977548 Z" id="路径-8备份" fill="url(#linearGradient-9)" opacity="0.3" transform="translate(257.349833, 108.653744) scale(-1, 1) rotate(-14.000000) translate(-257.349833, -108.653744) "></path>
                            <circle id="椭圆形" fill="#AFC7FF" opacity="0.159688314" cx="227.166107" cy="29.1176471" r="3.08823529"></circle>
                            <circle id="椭圆形备份" fill="#AFC7FF" opacity="0.140061878" cx="154.371989" cy="6.17647059" r="6.17647059"></circle>
                            <circle id="椭圆形备份-2" fill="#AFC7FF" opacity="0.0887029739" cx="63.9308126" cy="85.1470588" r="6.17647059"></circle>
                        </g>
                        <g id="车" opacity="0.6" transform="translate(75.944032, 20.832498)">
                            <g id="编组" transform="translate(21.516192, 69.608678)">
                                <g id="编组-16" transform="translate(1.764706, 0.000000)"></g>
                                <g id="车轮" transform="translate(9.705882, 53.823529)" stroke="url(#linearGradient-10)" stroke-width="1.01351351">
                                    <rect id="车轮2" x="60.4159263" y="0.506756757" width="14.5184934" height="11.3394277" rx="5.66971383"></rect>
                                    <rect id="车轮2" x="0.506756757" y="0.506756757" width="14.5184934" height="11.3394277" rx="5.66971383"></rect>
                                    <rect id="车轮1" x="0.506756757" y="0.506756757" width="14.5184934" height="11.3394277" rx="5.66971383"></rect>
                                    <rect id="车轮1" x="60.4159263" y="0.506756757" width="14.5184934" height="11.3394277" rx="5.66971383"></rect>
                                </g>
                                <g id="盖线" transform="translate(1.764706, 0.000000)">
                                    <mask id="mask-12" fill="white">
                                        <use xlink:href="#path-11"></use>
                                    </mask>
                                    <g id="蒙版"></g>
                                    <path d="M8.89839572,20.0695187 C6.67379679,23.9139697 6.11764706,27.0730606 7.22994652,29.5467914" id="路径-57" stroke="url(#linearGradient-13)" stroke-width="1.01351351" mask="url(#mask-12)"></path>
                                    <path d="M85.6470588,20.0695187 C83.4224599,23.9139697 82.8663102,27.0730606 83.9786096,29.5467914" id="路径-57" stroke="url(#linearGradient-13)" stroke-width="1.01351351" mask="url(#mask-12)" transform="translate(84.534759, 24.808155) scale(-1, 1) translate(-84.534759, -24.808155) "></path>
                                    <path d="M8.89839572,20.0695187 C6.67379679,23.9139697 6.11764706,27.0730606 7.22994652,29.5467914" id="路径-57" stroke="url(#linearGradient-14)" stroke-width="1.01351351" mask="url(#mask-12)"></path>
                                    <path d="M85.6470588,20.0695187 C83.4224599,23.9139697 82.8663102,27.0730606 83.9786096,29.5467914" id="路径-57" stroke="url(#linearGradient-14)" stroke-width="1.01351351" mask="url(#mask-12)" transform="translate(84.534759, 24.808155) scale(-1, 1) translate(-84.534759, -24.808155) "></path>
                                </g>
                                <path d="M86.2461977,36.9097404 L90.4410029,38.9122396 L89.8406308,39.6126127 L83.7017043,45.5993998 C81.43744,46.7042715 76.0141279,47.1843105 67.4317682,47.0395166 C44.5318723,47.4323939 31.1300961,47.6347257 27.2264397,47.646512 L26.8915005,47.6470588 C23.7367258,47.6470588 19.3418933,47.3021545 13.7070029,46.6123459 C19.2709292,42.8001938 25.6978579,40.4152333 32.4195101,39.6790517 L75.0544375,35.0095076 C78.889155,34.5895143 82.7650045,35.2475892 86.2461977,36.9097404 Z" id="形状结合" fill="url(#linearGradient-15)"></path>
                                <path d="M47.8115574,61.3519323 L53.6454635,62.2058355 C48.6090396,62.1990955 44.1482152,62.1773658 40.2629901,62.1406463 L47.8115574,61.3519323 Z M48.16691,44.1347645 C72.2183758,44.6882878 83.4844818,45.7337727 83.7073987,45.754627 L83.7108871,45.7549516 C81.1882622,46.8356126 73.6862898,47.3759431 61.20497,47.3759431 C46.1911259,47.4381052 37.326569,47.4748072 34.6112993,47.4860493 L34.4121657,47.4868738 C34.3810511,47.4870026 34.3509736,47.4871271 34.3219333,47.4872474 L34.1601372,47.4879172 C34.1352455,47.4880203 34.111391,47.4881191 34.0885736,47.4882135 L33.9641151,47.4887288 C33.9454463,47.4888061 33.9278147,47.4888791 33.9112202,47.4889478 L33.7120866,47.4897723 L33.7120866,47.4897723 C25.3801792,47.5091586 18.99756,47.257237 14.564229,46.7340075 L14.5582728,46.4024512 L14.5582728,46.4024512 C29.0935193,44.9089475 39.6306355,44.1475376 46.1696214,44.1182213 L46.867105,44.1179274 C47.3215205,44.1196675 47.7547888,44.1252799 48.16691,44.1347645 Z" id="形状结合" fill="url(#linearGradient-16)"></path>
                                <g id="车内" transform="translate(16.811630, 0.000000)">
                                    <mask id="mask-18" fill="white">
                                        <use xlink:href="#path-17"></use>
                                    </mask>
                                    <g id="蒙版"></g>
                                    <path d="M15.9759672,7.57362083 L23.1552207,7.57362083 C23.7634593,7.57362083 24.2971961,7.9788533 24.4606184,8.56472643 L26.1633981,14.6692344 C26.3644988,15.3901856 25.9430767,16.1376565 25.2221255,16.3387572 C25.1035763,16.3718251 24.9810751,16.3885902 24.8580003,16.3885902 L14.3511696,16.3885902 C13.6026963,16.3885902 12.9959389,15.7818327 12.9959389,15.0333595 C12.9959389,14.9156803 13.0112663,14.7985023 13.0415344,14.6847823 L14.666332,8.58027439 C14.824316,7.9867145 15.3617422,7.57362083 15.9759672,7.57362083 Z" id="座椅1" stroke="url(#linearGradient-19)" stroke-width="1.01351351" mask="url(#mask-18)"></path>
                                    <path d="M40.4575281,7.57362083 L47.6367816,7.57362083 C48.2450202,7.57362083 48.778757,7.9788533 48.9421793,8.56472643 L50.644959,14.6692344 C50.8460597,15.3901856 50.4246376,16.1376565 49.7036864,16.3387572 C49.5851372,16.3718251 49.462636,16.3885902 49.3395613,16.3885902 L38.8327305,16.3885902 C38.0842572,16.3885902 37.4774998,15.7818327 37.4774998,15.0333595 C37.4774998,14.9156803 37.4928272,14.7985023 37.5230953,14.6847823 L39.1478929,8.58027439 C39.3058769,7.9867145 39.8433031,7.57362083 40.4575281,7.57362083 Z" id="座椅1" stroke="url(#linearGradient-19)" stroke-width="1.01351351" mask="url(#mask-18)"></path>
                                    <path d="M15.9759672,7.57362083 L23.1552207,7.57362083 C23.7634593,7.57362083 24.2971961,7.9788533 24.4606184,8.56472643 L26.1633981,14.6692344 C26.3644988,15.3901856 25.9430767,16.1376565 25.2221255,16.3387572 C25.1035763,16.3718251 24.9810751,16.3885902 24.8580003,16.3885902 L14.3511696,16.3885902 C13.6026963,16.3885902 12.9959389,15.7818327 12.9959389,15.0333595 C12.9959389,14.9156803 13.0112663,14.7985023 13.0415344,14.6847823 L14.666332,8.58027439 C14.824316,7.9867145 15.3617422,7.57362083 15.9759672,7.57362083 Z" id="座椅2" stroke="url(#linearGradient-20)" stroke-width="1.01351351" mask="url(#mask-18)"></path>
                                    <path d="M40.4575281,7.57362083 L47.6367816,7.57362083 C48.2450202,7.57362083 48.778757,7.9788533 48.9421793,8.56472643 L50.644959,14.6692344 C50.8460597,15.3901856 50.4246376,16.1376565 49.7036864,16.3387572 C49.5851372,16.3718251 49.462636,16.3885902 49.3395613,16.3885902 L38.8327305,16.3885902 C38.0842572,16.3885902 37.4774998,15.7818327 37.4774998,15.0333595 C37.4774998,14.9156803 37.4928272,14.7985023 37.5230953,14.6847823 L39.1478929,8.58027439 C39.3058769,7.9867145 39.8433031,7.57362083 40.4575281,7.57362083 Z" id="座椅2" stroke="url(#linearGradient-20)" stroke-width="1.01351351" mask="url(#mask-18)"></path>
                                    <path d="M40.4575281,7.57362083 L47.6367816,7.57362083 C48.2450202,7.57362083 48.778757,7.9788533 48.9421793,8.56472643 L50.644959,14.6692344 C50.8460597,15.3901856 50.4246376,16.1376565 49.7036864,16.3387572 C49.5851372,16.3718251 49.462636,16.3885902 49.3395613,16.3885902 L38.8327305,16.3885902 C38.0842572,16.3885902 37.4774998,15.7818327 37.4774998,15.0333595 C37.4774998,14.9156803 37.4928272,14.7985023 37.5230953,14.6847823 L39.1478929,8.58027439 C39.3058769,7.9867145 39.8433031,7.57362083 40.4575281,7.57362083 Z" id="座椅1" opacity="0.239717029" mask="url(#mask-18)"></path>
                                    <path d="M15.9759672,7.57362083 L23.1552207,7.57362083 C23.7634593,7.57362083 24.2971961,7.9788533 24.4606184,8.56472643 L26.1633981,14.6692344 C26.3644988,15.3901856 25.9430767,16.1376565 25.2221255,16.3387572 C25.1035763,16.3718251 24.9810751,16.3885902 24.8580003,16.3885902 L14.3511696,16.3885902 C13.6026963,16.3885902 12.9959389,15.7818327 12.9959389,15.0333595 C12.9959389,14.9156803 13.0112663,14.7985023 13.0415344,14.6847823 L14.666332,8.58027439 C14.824316,7.9867145 15.3617422,7.57362083 15.9759672,7.57362083 Z" id="座椅2" opacity="0.239717029" mask="url(#mask-18)"></path>
                                    <ellipse id="椭圆形" stroke="url(#linearGradient-21)" stroke-width="2.20588235" mask="url(#mask-18)" cx="45.1418636" cy="19.1966274" rx="8.1244896" ry="8.03388143"></ellipse>
                                </g>
                                <g id="后视镜2" transform="translate(0.000000, 12.794118)" stroke-width="1.01351351">
                                    <path d="M84.4312556,6.41420947 L86.0993468,4.99531151 L86.5110947,1.18529169 C86.5867629,-1.77635684e-15 87.5587544,-0.296322922 89.4270691,0.296322922 C92.2295411,1.18529169 95.3291253,2.79776293 94.1573568,4.35763931 C93.3761778,5.3975569 92.4853721,6.08308028 91.4849397,6.41420947 L87.6809791,6.41420947 L85.0331654,8.82352941 L84.4312556,6.41420947 Z" id="2" stroke="url(#linearGradient-23)"></path>
                                    <path d="M0,6.41420947 L1.66809118,4.99531151 L2.07983916,1.18529169 C2.15550734,-1.77635684e-15 3.12749879,-0.296322922 4.99581349,0.296322922 C7.79828554,1.18529169 10.8978697,2.79776293 9.72610124,4.35763931 C8.94492225,5.3975569 8.05411654,6.08308028 7.05368411,6.41420947 L3.24972349,6.41420947 L0.601909826,8.82352941 L0,6.41420947 Z" id="2" stroke="url(#linearGradient-24)" transform="translate(4.990255, 4.411765) scale(-1, 1) translate(-4.990255, -4.411765) "></path>
                                </g>
                                <path d="M27.4896819,0.011 L27.2218993,0.138313287 C26.468134,0.502928362 25.9047931,0.833780593 25.5318765,1.13086998 C24.1182512,2.25705501 22.8601766,3.80404939 21.7515202,5.16533285 C20.5686623,6.61772606 19.1426753,8.95206654 17.4735594,12.1683543 L17.4735594,12.1683543 L17.2444587,12.6124123 L17.1774767,12.7551045 C16.726803,13.8104991 17.163377,15.0500467 18.2001879,15.5819723 C18.5293229,15.7508317 18.8956388,15.8342059 19.2654329,15.824424 C36.2380566,15.3754607 45.7524972,15.1427969 47.8075083,15.1264086 C49.8707474,15.1425968 59.6263216,15.3760976 77.0742309,15.8269109 C77.4424634,15.8364252 77.8072162,15.7535747 78.1352063,15.5859196 C79.2199828,15.0314261 79.6498621,13.7025351 79.0953685,12.6177586 L79.0953685,12.6177586 L78.8669051,12.1733528 C77.2025727,8.95448498 75.7807616,6.61847834 74.6014717,5.16533285 C73.4967317,3.80404939 72.2431013,2.25705501 70.8344697,1.13086998 C70.4164205,0.79664442 69.7582169,0.41968776 68.8598589,1.536965e-15 L68.8846819,0.012 L69.9920203,0.0133500108 C70.9587335,0.476679798 71.6670191,0.89283501 72.1168772,1.26181565 C73.63269,2.50510916 74.9817078,4.21297069 76.1705063,5.71580979 C77.6506096,7.58690679 79.4857261,10.9200498 81.6758558,15.7152389 L81.903697,16.216504 C82.2049512,16.8825103 81.9092612,17.66663 81.2432548,17.9678842 C81.061048,18.0503017 80.8625337,18.0903586 80.6626244,18.0850459 C60.9635321,17.5615314 49.8823932,17.2877904 47.4192077,17.2638229 C44.9723784,17.2882408 34.1898646,17.5614314 15.0736621,18.0834577 C14.8734271,18.0889257 14.6745627,18.0488727 14.4920564,17.9663173 C13.8676854,17.6838877 13.5687889,16.977073 13.7820949,16.3410608 L13.8316408,16.2149492 L14.0594376,15.7137612 C16.2492694,10.919365 18.0841609,7.58671458 19.5641122,5.71580979 C20.7529106,4.21297069 22.1019284,2.50510916 23.6177413,1.26181565 C24.0226135,0.929733074 24.6368121,0.559439095 25.460337,0.15093371 L25.7425981,0.0133500108 L27.4896819,0.011 Z" id="形状结合" fill="url(#linearGradient-25)"></path>
                                <g id="后视镜1" transform="translate(0.000000, 12.794118)" stroke="url(#linearGradient-26)" stroke-width="1.01351351">
                                    <path d="M84.4312556,6.41420947 L86.0993468,4.99531151 L86.5110947,1.18529169 C86.5867629,-1.77635684e-15 87.5587544,-0.296322922 89.4270691,0.296322922 C92.2295411,1.18529169 95.3291253,2.79776293 94.1573568,4.35763931 C93.3761778,5.3975569 92.4853721,6.08308028 91.4849397,6.41420947 L87.6809791,6.41420947 L85.0331654,8.82352941 L84.4312556,6.41420947 Z" id="2"></path>
                                    <path d="M0,6.41420947 L1.66809118,4.99531151 L2.07983916,1.18529169 C2.15550734,-1.77635684e-15 3.12749879,-0.296322922 4.99581349,0.296322922 C7.79828554,1.18529169 10.8978697,2.79776293 9.72610124,4.35763931 C8.94492225,5.3975569 8.05411654,6.08308028 7.05368411,6.41420947 L3.24972349,6.41420947 L0.601909826,8.82352941 L0,6.41420947 Z" id="2" transform="translate(4.990255, 4.411765) scale(-1, 1) translate(-4.990255, -4.411765) "></path>
                                </g>
                                <path d="M45.2097047,61.3235294 L45.208603,61.3079187 C21.6229212,61.1529273 7.25749751,59.8438093 2.11233201,57.3805647 C2.73834158,49.6068766 2.73834158,43.7645702 2.11233201,39.8536456 C1.17331766,33.9872587 2.13587106,29.0533736 5.00965578,25.5273687 C5.93668311,24.3899478 6.65156871,23.9013681 7.30841193,23.4949098 L7.50387773,23.3748693 C8.79742921,22.5834668 9.92045096,21.8938619 12.1057379,16.7722955 C14.0244684,12.2754463 16.8488667,7.56309822 20.5789329,2.63525119 C21.8353694,0.975353828 23.7969208,-3.61956729e-06 25.878721,7.10542736e-14 L25.878721,7.10542736e-14 L69.4153966,7.10542736e-14 C71.4971968,-3.61956728e-06 73.4587483,0.975353828 74.7151848,2.63525119 C78.445251,7.56309822 81.2696493,12.2754463 83.1883798,16.7722955 C85.1005058,21.2536661 86.1993351,22.3418162 87.3107439,23.0740101 L87.5015484,23.1966089 C88.298365,23.6976309 89.1256777,24.1055926 90.2844619,25.5273687 C93.1582466,29.0533736 94.1208,33.9872587 93.1817856,39.8536456 C92.5557761,43.7645702 92.5557761,49.6068766 93.1817856,57.3805647 C88.0365989,59.8438195 73.6710777,61.1529381 50.0852221,61.3079206 L50.0844129,61.3235294 C49.2896907,61.3235294 48.5044185,61.3223465 47.7285963,61.3199807 L47.5655213,61.3199807 C46.7896992,61.3223465 46.004427,61.3235294 45.2097047,61.3235294 Z" id="车架2" stroke="url(#linearGradient-27)" stroke-width="1.01351351"></path>
                                <path d="M45.2097047,61.3235294 L45.208603,61.3079187 C21.6229212,61.1529273 7.25749751,59.8438093 2.11233201,57.3805647 C2.73834158,49.6068766 2.73834158,43.7645702 2.11233201,39.8536456 C1.17331766,33.9872587 2.13587106,29.0533736 5.00965578,25.5273687 C5.93668311,24.3899478 6.65156871,23.9013681 7.30841193,23.4949098 L7.50387773,23.3748693 C8.79742921,22.5834668 9.92045096,21.8938619 12.1057379,16.7722955 C14.0244684,12.2754463 16.8488667,7.56309822 20.5789329,2.63525119 C21.8353694,0.975353828 23.7969208,-3.61956729e-06 25.878721,7.10542736e-14 L25.878721,7.10542736e-14 L69.4153966,7.10542736e-14 C71.4971968,-3.61956728e-06 73.4587483,0.975353828 74.7151848,2.63525119 C78.445251,7.56309822 81.2696493,12.2754463 83.1883798,16.7722955 C85.1005058,21.2536661 86.1993351,22.3418162 87.3107439,23.0740101 L87.5015484,23.1966089 C88.298365,23.6976309 89.1256777,24.1055926 90.2844619,25.5273687 C93.1582466,29.0533736 94.1208,33.9872587 93.1817856,39.8536456 C92.5557761,43.7645702 92.5557761,49.6068766 93.1817856,57.3805647 C88.0365989,59.8438195 73.6710777,61.1529381 50.0852221,61.3079206 L50.0844129,61.3235294 C49.2896907,61.3235294 48.5044185,61.3223465 47.7285963,61.3199807 L47.5655213,61.3199807 C46.7896992,61.3223465 46.004427,61.3235294 45.2097047,61.3235294 Z" id="车架1" stroke="url(#linearGradient-28)" stroke-width="1.01351351"></path>
                                <path d="M47.8657663,7.10542736e-14 L47.8656295,0.001 L68.1104449,0.0238405056 C68.9892881,0.431579137 69.6331936,0.797803285 70.0421615,1.12251295 C71.4201936,2.21663383 72.6465916,3.71958301 73.7273334,5.04210872 C75.0335767,6.64058507 76.6439748,9.33865217 78.5585277,13.13631 L78.7897005,13.5973237 C79.1035509,14.226296 78.8480942,14.9906047 78.2191219,15.3044551 C78.0327313,15.3974621 77.8263615,15.4432991 77.6181234,15.4379437 C59.6259682,14.9752225 49.5918007,14.7357678 47.515621,14.7195795 C45.4450971,14.735992 35.645737,14.9749637 18.1181934,15.4365193 C17.9090705,15.4420261 17.7018141,15.3959022 17.5147633,15.3022288 C16.886236,14.9874677 16.6318782,14.2227813 16.9466393,13.594254 L16.9466393,13.594254 C18.969532,9.55481616 20.6624698,6.70410416 22.0254344,5.04210872 C23.1100075,3.71958301 24.3407531,2.21663383 25.7236705,1.12251295 C26.1340882,0.797803285 26.7802764,0.431579137 27.6622351,0.0238405056 L27.6622351,0.0238405056 L47.1686295,0.001 L47.1695559,7.10542736e-14 L47.8657663,7.10542736e-14 Z" id="前窗户" fill="url(#linearGradient-29)"></path>
                                <path d="M47.8657663,7.10542736e-14 L47.8656295,0.001 L68.1104449,0.0238405056 C68.9892881,0.431579137 69.6331936,0.797803285 70.0421615,1.12251295 C71.4201936,2.21663383 72.6465916,3.71958301 73.7273334,5.04210872 C75.0335767,6.64058507 76.6439748,9.33865217 78.5585277,13.13631 L78.7897005,13.5973237 C79.1035509,14.226296 78.8480942,14.9906047 78.2191219,15.3044551 C78.0327313,15.3974621 77.8263615,15.4432991 77.6181234,15.4379437 C59.6259682,14.9752225 49.5918007,14.7357678 47.515621,14.7195795 C45.4450971,14.735992 35.645737,14.9749637 18.1181934,15.4365193 C17.9090705,15.4420261 17.7018141,15.3959022 17.5147633,15.3022288 C16.886236,14.9874677 16.6318782,14.2227813 16.9466393,13.594254 L16.9466393,13.594254 C18.969532,9.55481616 20.6624698,6.70410416 22.0254344,5.04210872 C23.1100075,3.71958301 24.3407531,2.21663383 25.7236705,1.12251295 C26.1340882,0.797803285 26.7802764,0.431579137 27.6622351,0.0238405056 L27.6622351,0.0238405056 L47.1686295,0.001 L47.1695559,7.10542736e-14 L47.8657663,7.10542736e-14 Z" id="前窗户1" stroke="url(#linearGradient-30)" stroke-width="1.01351351"></path>
                                <path d="M47.8657663,7.10542736e-14 L47.8656295,0.001 L68.1104449,0.0238405056 C68.9892881,0.431579137 69.6331936,0.797803285 70.0421615,1.12251295 C71.4201936,2.21663383 72.6465916,3.71958301 73.7273334,5.04210872 C75.0335767,6.64058507 76.6439748,9.33865217 78.5585277,13.13631 L78.7897005,13.5973237 C79.1035509,14.226296 78.8480942,14.9906047 78.2191219,15.3044551 C78.0327313,15.3974621 77.8263615,15.4432991 77.6181234,15.4379437 C59.6259682,14.9752225 49.5918007,14.7357678 47.515621,14.7195795 C45.4450971,14.735992 35.645737,14.9749637 18.1181934,15.4365193 C17.9090705,15.4420261 17.7018141,15.3959022 17.5147633,15.3022288 C16.886236,14.9874677 16.6318782,14.2227813 16.9466393,13.594254 L16.9466393,13.594254 C18.969532,9.55481616 20.6624698,6.70410416 22.0254344,5.04210872 C23.1100075,3.71958301 24.3407531,2.21663383 25.7236705,1.12251295 C26.1340882,0.797803285 26.7802764,0.431579137 27.6622351,0.0238405056 L27.6622351,0.0238405056 L47.1686295,0.001 L47.1695559,7.10542736e-14 L47.8657663,7.10542736e-14 Z" id="前窗户2" stroke="url(#linearGradient-31)" stroke-width="1.01351351"></path>
                                <path d="M4.94583329,40.1470588 C3.97058824,45.9193181 3.72677697,50.7269014 4.2143995,54.5698087 C9.29092245,50.8092201 11.8291839,48.9289259 11.8291839,48.9289259 L20.6623318,49.3211714 L15.3109214,58.56828 L48.1138372,61.3235294 L79.7692493,58.56828 L74.7178357,49.3211714 L83.5945168,48.9289259 L91.0006496,54.5698087 C91.6509494,48.1874481 91.3189413,43.3798648 90.0046251,40.1470588 L84.027805,45.7478196 C81.5041515,46.8270068 73.9991202,47.3666004 61.512711,47.3666004 C43.1766485,47.442383 34.0086172,47.4802744 34.0086172,47.4802744 C23.1791515,47.5054272 15.6414156,47.0732383 11.3954098,46.1837079 C11.3954098,46.1837079 9.24555095,44.1714915 4.94583329,40.1470588 Z" id="路径-60" stroke="url(#linearGradient-33)" stroke-width="1.01351351" fill="url(#linearGradient-32)"></path>
                                <g id="窗户" transform="translate(18.970588, 0.882353)" fill="url(#linearGradient-34)">
                                    <path d="M8.82033993,0 C4.21414496,4.34636255 1.27403165,8.75812726 0,13.2352941 L11.1052575,12.8651169 L13.0722594,7.88063215 L8.82033993,0 Z" id="路径-59"></path>
                                    <path d="M53.9833747,3.19744231e-13 C49.3771797,4.34636255 46.4370664,8.75812726 45.1630347,13.2352941 L56.2682922,12.8651169 L58.2352941,7.88063215 L53.9833747,3.19744231e-13 Z" id="路径-59" transform="translate(51.699164, 6.617647) scale(-1, 1) translate(-51.699164, -6.617647) "></path>
                                </g>
                                <path d="M76.4788533,13.6764706 C75.0660362,22.0260885 80.3083792,28.2025591 92.2058824,32.2058824 C84.0418542,31.8084989 77.7681959,31.2489486 73.3849074,30.5272314 C69.7562227,29.6922544 67.5690513,29.0847669 66.8233933,28.7047687 C65.7049063,28.1347714 69.3688846,25.4798694 72.4478164,22.5885804 C74.5004376,20.6610544 75.8441166,17.6903511 76.4788533,13.6764706 Z" id="路径-3" fill="url(#linearGradient-35)" transform="translate(79.411765, 22.941176) scale(-1, 1) translate(-79.411765, -22.941176) "></path>
                                <path d="M12.5082651,13.6764706 C11.0954479,22.0260885 16.337791,28.2025591 28.2352941,32.2058824 C20.071266,31.8084989 13.7976076,31.2489486 9.41431916,30.5272314 C5.78563444,29.6922544 3.59846308,29.0847669 2.85280509,28.7047687 C1.7343181,28.1347714 5.3982964,25.4798694 8.4772282,22.5885804 C10.5298494,20.6610544 11.8735284,17.6903511 12.5082651,13.6764706 Z" id="路径-3" fill="url(#linearGradient-36)"></path>
                                <path d="M23.7995245,36.0325001 C20.0325655,35.813488 14.2041506,36.4497134 6.31427996,37.9411765 C5.91947735,37.9375799 5.54630085,37.4197048 5.19475047,36.3875512 C2.74884149,33.9518644 2.43292099,31.3857873 4.24698896,28.6893199 C4.36825708,28.5090645 7.56636386,30.2675053 16.5616055,31.3169348 C22.2345094,31.9787639 30.8915155,32.2313655 39.7140141,32.3814918 L41.9845293,32.4180302 L41.9845293,32.4180302 L43.4969997,32.4404519 C44.9707361,32.461709 46.4378395,32.4813258 47.8851262,32.5007368 C49.1114048,32.4842549 50.3466564,32.4676524 51.5838249,32.4500278 L53.1136564,32.4276593 C62.8027105,32.2819203 72.4364893,32.05146 78.7325122,31.3169348 C87.7277538,30.2675053 90.9258606,28.5090645 91.0471287,28.6893199 C92.8611967,31.3857873 92.5452762,33.9518644 90.0993672,36.3875512 C89.7478168,37.4197048 89.3746403,37.9375799 88.9798377,37.9411765 C81.089967,36.4497134 75.2615522,35.813488 71.4945931,36.0325001 L71.4945931,36.0325001 L23.7995245,36.0325001 Z" id="前灯" stroke="url(#linearGradient-37)" stroke-width="1.01351351"></path>
                                <path d="M23.7995245,36.0325001 C20.0325655,35.813488 14.2041506,36.4497134 6.31427996,37.9411765 C5.91947735,37.9375799 5.54630085,37.4197048 5.19475047,36.3875512 C2.74884149,33.9518644 2.43292099,31.3857873 4.24698896,28.6893199 C4.36825708,28.5090645 7.56636386,30.2675053 16.5616055,31.3169348 C22.2345094,31.9787639 30.8915155,32.2313655 39.7140141,32.3814918 L41.9845293,32.4180302 L41.9845293,32.4180302 L43.4969997,32.4404519 C44.9707361,32.461709 46.4378395,32.4813258 47.8851262,32.5007368 C49.1114048,32.4842549 50.3466564,32.4676524 51.5838249,32.4500278 L53.1136564,32.4276593 C62.8027105,32.2819203 72.4364893,32.05146 78.7325122,31.3169348 C87.7277538,30.2675053 90.9258606,28.5090645 91.0471287,28.6893199 C92.8611967,31.3857873 92.5452762,33.9518644 90.0993672,36.3875512 C89.7478168,37.4197048 89.3746403,37.9375799 88.9798377,37.9411765 C81.089967,36.4497134 75.2615522,35.813488 71.4945931,36.0325001 L71.4945931,36.0325001 L23.7995245,36.0325001 Z" id="前灯" stroke="url(#linearGradient-39)" stroke-width="1.01351351" fill="url(#linearGradient-38)"></path>
                            </g>
                            <ellipse id="坑" stroke="url(#linearGradient-41)" stroke-width="1.01351351" fill="url(#linearGradient-40)" fill-rule="nonzero" opacity="0" filter="url(#filter-42)" cx="68.7220746" cy="147.255737" rx="34.7873609" ry="4.34618442"></ellipse>
                            <g id="对话框" fill-rule="nonzero" stroke-width="1.01351351">
                                <g id="编组-5" transform="translate(85.671314, 0.000000)">
                                    <path d="M31.9695961,59.1204157 C32.4129609,58.2582603 33.4688037,57.915208 34.3342468,58.3521206 L34.3342468,58.3521206 L39.913173,61.1686005 L39.913173,61.1686005 L39.9249179,61.174585 C40.7916477,61.6203022 41.1329458,62.6842508 40.6872285,63.5509806 L40.6872285,63.5509806 L39.4232416,66.0088955 C38.9798768,66.8710509 37.924034,67.2141032 37.0585909,66.7771906 L37.0585909,66.7771906 L31.4796647,63.9607107 C31.4757423,63.9587305 31.4718273,63.9567357 31.4679198,63.9547263 C30.60119,63.509009 30.2598919,62.4450604 30.7056092,61.5783306 L30.7056092,61.5783306 Z M45.5932182,31.3585051 C45.6403928,31.3774092 45.6867287,31.3983422 45.7320965,31.4212458 L54.2329591,35.7128438 C55.102994,36.1520745 55.4522298,37.2134441 55.0129991,38.083479 C54.9945484,38.1200264 54.9748315,38.1559206 54.9538841,38.1910965 L43.6183013,57.2264049 C43.1440008,58.0228753 42.1343045,58.3165965 41.3067811,57.8988274 L35.889711,55.1640594 C35.0723564,54.7514239 34.706351,53.7822097 35.0469304,52.9323024 L43.2987206,32.340164 C43.661251,31.4354784 44.6885326,30.9959747 45.5932182,31.3585051 Z" id="形状结合" stroke="url(#linearGradient-44)" fill="url(#linearGradient-43)" filter="url(#filter-45)" transform="translate(42.856317, 49.099167) rotate(25.000000) translate(-42.856317, -49.099167) "></path>
                                    <path d="M5.20137699,38.7489002 C5.644297,37.8809438 6.70671588,37.535743 7.57521765,37.9775926 L7.57521765,37.9775926 L15.9712203,42.2541596 L15.9712203,42.2541596 L16.1045721,42.3288702 C16.8743343,42.8078631 17.1620096,43.8049375 16.7423222,44.6273672 L16.7423222,44.6273672 L14.5400928,48.948061 C14.0971728,49.8160174 13.034754,50.1612182 12.1662522,49.7193685 L12.1662522,49.7193685 L3.77024953,45.4428016 C3.76989614,45.4431497 3.76975636,45.4430785 3.76961658,45.4430072 L3.63689774,45.3680909 C2.86713555,44.8890981 2.57946025,43.8920236 2.99914766,43.069594 L2.99914766,43.069594 Z M22.4438887,1.96251802 C22.4947618,1.98272344 22.5446673,2.00528494 22.5934433,2.03012934 L34.9362668,8.31703912 C35.8047187,8.75939162 36.1501405,9.82200853 35.707788,10.6904604 C35.6912083,10.7230106 35.673622,10.7550382 35.6550543,10.7864968 L20.073305,37.1861942 C19.5995275,37.9889015 18.5831781,38.2847314 17.7526174,37.8616791 L9.64876,33.7339185 C8.83690729,33.3203952 8.4733179,32.3568116 8.80962746,31.5100518 L20.1524107,2.95120521 C20.5121664,2.04541261 21.5380961,1.60276228 22.4438887,1.96251802 Z" id="形状结合" stroke="url(#linearGradient-47)" fill="url(#linearGradient-46)" filter="url(#filter-48)" transform="translate(19.353225, 25.874568) rotate(-7.000000) translate(-19.353225, -25.874568) "></path>
                                    <path d="M31.9695961,59.1204157 C32.4129609,58.2582603 33.4688037,57.915208 34.3342468,58.3521206 L34.3342468,58.3521206 L39.913173,61.1686005 L39.913173,61.1686005 L39.9249179,61.174585 C40.7916477,61.6203022 41.1329458,62.6842508 40.6872285,63.5509806 L40.6872285,63.5509806 L39.4232416,66.0088955 C38.9798768,66.8710509 37.924034,67.2141032 37.0585909,66.7771906 L37.0585909,66.7771906 L31.4796647,63.9607107 C31.4757423,63.9587305 31.4718273,63.9567357 31.4679198,63.9547263 C30.60119,63.509009 30.2598919,62.4450604 30.7056092,61.5783306 L30.7056092,61.5783306 Z M45.5932182,31.3585051 C45.6403928,31.3774092 45.6867287,31.3983422 45.7320965,31.4212458 L54.2329591,35.7128438 C55.102994,36.1520745 55.4522298,37.2134441 55.0129991,38.083479 C54.9945484,38.1200264 54.9748315,38.1559206 54.9538841,38.1910965 L43.6183013,57.2264049 C43.1440008,58.0228753 42.1343045,58.3165965 41.3067811,57.8988274 L35.889711,55.1640594 C35.0723564,54.7514239 34.706351,53.7822097 35.0469304,52.9323024 L43.2987206,32.340164 C43.661251,31.4354784 44.6885326,30.9959747 45.5932182,31.3585051 Z" id="形状结合" stroke="url(#linearGradient-49)" fill="url(#linearGradient-43)" filter="url(#filter-50)" transform="translate(42.856317, 49.099167) rotate(25.000000) translate(-42.856317, -49.099167) "></path>
                                    <path d="M5.20137699,38.7489002 C5.644297,37.8809438 6.70671588,37.535743 7.57521765,37.9775926 L7.57521765,37.9775926 L15.9712203,42.2541596 L15.9712203,42.2541596 L16.1045721,42.3288702 C16.8743343,42.8078631 17.1620096,43.8049375 16.7423222,44.6273672 L16.7423222,44.6273672 L14.5400928,48.948061 C14.0971728,49.8160174 13.034754,50.1612182 12.1662522,49.7193685 L12.1662522,49.7193685 L3.77024953,45.4428016 C3.76989614,45.4431497 3.76975636,45.4430785 3.76961658,45.4430072 L3.63689774,45.3680909 C2.86713555,44.8890981 2.57946025,43.8920236 2.99914766,43.069594 L2.99914766,43.069594 Z M22.4438887,1.96251802 C22.4947618,1.98272344 22.5446673,2.00528494 22.5934433,2.03012934 L34.9362668,8.31703912 C35.8047187,8.75939162 36.1501405,9.82200853 35.707788,10.6904604 C35.6912083,10.7230106 35.673622,10.7550382 35.6550543,10.7864968 L20.073305,37.1861942 C19.5995275,37.9889015 18.5831781,38.2847314 17.7526174,37.8616791 L9.64876,33.7339185 C8.83690729,33.3203952 8.4733179,32.3568116 8.80962746,31.5100518 L20.1524107,2.95120521 C20.5121664,2.04541261 21.5380961,1.60276228 22.4438887,1.96251802 Z" id="形状结合" stroke="url(#linearGradient-51)" fill="url(#linearGradient-46)" filter="url(#filter-52)" transform="translate(19.353225, 25.874568) rotate(-7.000000) translate(-19.353225, -25.874568) "></path>
                                </g>
                                <path d="M0,63.2184914 L5.15357824,58.6940333 C8.44274896,62.0043986 11.3465417,62.0043986 13.8649565,58.6940333 C17.6425786,53.7284854 15.1799266,47.8618347 12.9703994,50.2207231 C10.7608721,52.5796115 11.0963262,60.1384721 20.3213795,59.620011 C22.9645454,59.4714613 23.9820356,57.8700912 23.8771387,55.8067727 C23.6159292,50.668794 16.3949516,42.6663369 9.98553103,47.0995514 C1.00220418,53.3130639 12.4456183,62.8539377 17.6425786,60.7739855 C21.1072189,59.3873507 21.1072189,57.3445762 17.6425786,54.6456621" id="路径-26" stroke="url(#linearGradient-53)" filter="url(#filter-54)" transform="translate(11.942220, 54.513795) scale(-1, 1) translate(-11.942220, -54.513795) "></path>
                            </g>
                        </g>
                        <path d="M18.0484596,149.211879 L97.8378472,148.897059" id="形状" stroke="url(#linearGradient-55)" stroke-width="1.01351351" opacity="0.58" transform="translate(57.943153, 149.054469) scale(-1, 1) translate(-57.943153, -149.054469) "></path>
                        <path d="M192.754342,149.211879 L273.930813,148.897059" id="形状" stroke="url(#linearGradient-56)" stroke-width="1.01351351" opacity="0.58"></path>
                    </g>
                    <text id="暂无数据" font-family="AlibabaPuHuiTi-Regular, Alibaba PuHuiTi" font-size="16" font-weight="normal" line-spacing="24" fill="#333333">
                        <tspan x="114" y="217">暂无数据</tspan>
                    </text>
                    <text id="请重新加载页面" font-family="AlibabaPuHuiTi-Regular, Alibaba PuHuiTi" font-size="14" font-weight="normal" line-spacing="20"></text>
                </g>
            </g>
        </g>
    </g>
</svg>